<?xml version="1.0" encoding="UTF-8" standalone="no"?>
<!DOCTYPE svg PUBLIC "-//W3C//DTD SVG 1.1//EN" "http://www.w3.org/Graphics/SVG/1.1/DTD/svg11.dtd">
<svg xmlns="http://www.w3.org/2000/svg" version="1.1" viewBox="0.00 0.00 702.00 355.00">
<path fill="#e68437" d="
  M 132.34 230.60
  L 130.77 227.88
  A 3.36 3.29 88.3 0 0 129.46 226.62
  Q 127.41 225.54 123.25 223.01
  Q 119.52 220.74 113.82 219.23
  Q 110.22 218.27 101.80 213.50
  Q 95.29 209.80 92.57 202.76
  A 0.74 0.73 -26.2 0 1 92.88 201.87
  C 99.34 198.02 105.13 192.65 106.60 185.52
  C 108.49 176.28 107.72 167.04 103.59 158.81
  C 101.73 155.11 100.88 152.00 98.84 148.57
  Q 95.19 142.44 92.99 135.83
  Q 92.85 135.39 91.07 133.01
  A 0.54 0.53 52.4 0 0 90.31 132.91
  C 85.89 136.39 83.04 140.43 79.67 145.19
  Q 77.70 147.98 76.21 151.06
  C 73.43 156.79 71.16 160.23 70.16 165.15
  Q 68.37 173.96 69.60 183.26
  Q 70.43 189.49 73.84 193.81
  Q 78.94 200.26 84.98 202.21
  A 2.35 2.32 -8.4 0 1 86.18 203.09
  C 87.56 205.08 88.77 208.58 90.74 210.90
  Q 95.62 216.63 99.51 218.75
  Q 104.55 221.49 112.43 224.35
  Q 119.12 226.77 121.85 228.83
  Q 126.96 232.68 130.13 237.96
  A 6.09 5.98 -66.3 0 1 130.88 239.94
  Q 132.09 246.36 131.28 253.41
  A 0.79 0.78 -1.5 0 1 130.63 254.09
  C 119.98 255.79 108.49 255.15 98.21 251.54
  Q 93.70 249.96 90.21 248.97
  A 6.92 6.27 -19.7 0 1 88.83 248.40
  C 83.00 245.11 79.53 243.67 75.50 240.35
  C 70.46 236.20 66.84 233.21 63.60 228.85
  Q 61.20 225.62 59.94 224.67
  A 1.43 1.43 0.0 0 1 59.58 224.26
  L 52.76 212.46
  A 4.45 4.41 21.5 0 1 52.43 211.71
  C 50.46 205.32 48.22 200.27 47.35 194.75
  Q 45.06 180.19 47.69 166.45
  C 48.48 162.29 50.62 157.65 52.23 152.62
  A 15.92 15.73 -20.0 0 1 53.97 148.94
  C 56.15 145.56 58.13 141.39 60.92 137.81
  Q 73.93 121.17 93.59 113.41
  Q 98.39 111.52 101.83 110.89
  C 109.59 109.48 115.44 108.28 123.13 108.64
  Q 125.87 108.77 135.04 110.36
  Q 141.53 111.49 146.56 113.71
  Q 156.30 118.02 163.34 122.96
  Q 166.08 124.89 167.88 126.77
  Q 170.36 129.36 172.10 130.48
  A 3.10 2.99 -88.9 0 1 173.14 131.60
  Q 173.63 132.49 176.62 135.82
  Q 178.13 137.50 179.91 140.16
  Q 186.00 149.28 189.73 160.75
  Q 192.20 168.34 192.42 174.02
  C 192.91 186.56 192.71 195.77 188.39 206.79
  Q 185.03 215.39 181.41 221.26
  Q 179.63 224.15 177.48 226.71
  Q 173.36 231.62 173.14 231.88
  Q 171.36 234.01 162.28 241.12
  Q 159.59 243.23 156.36 244.84
  C 153.01 246.51 148.88 249.54 143.72 250.19
  A 0.47 0.46 -5.1 0 1 143.19 249.75
  Q 142.09 223.07 142.05 222.57
  C 141.76 218.24 142.06 211.66 143.57 207.57
  C 145.01 203.66 152.24 201.10 154.95 197.98
  C 158.01 194.45 160.18 191.66 161.79 186.87
  Q 165.88 174.70 163.54 162.15
  Q 161.89 153.32 160.31 149.47
  Q 159.61 147.79 156.50 142.45
  C 153.31 136.96 147.84 132.43 142.30 130.52
  C 133.05 127.34 124.06 134.82 118.87 142.36
  C 113.39 150.33 111.12 160.91 110.56 169.04
  Q 110.09 175.84 112.93 185.87
  C 114.19 190.33 118.00 195.94 120.50 198.44
  Q 122.79 200.72 127.21 203.31
  C 134.94 207.83 133.63 220.63 132.98 230.45
  A 0.34 0.34 0.0 0 1 132.34 230.60
  Z"
/>
<path fill="#e68437" d="
  M 137.49 135.23
  Q 140.75 135.22 142.47 136.32
  Q 147.80 139.73 149.77 142.35
  Q 151.87 145.13 154.43 149.36
  A 4.78 4.59 -70.4 0 1 154.85 150.29
  Q 158.56 161.77 158.75 166.53
  Q 159.26 179.23 154.75 188.09
  Q 150.84 195.77 141.22 198.74
  Q 139.74 199.20 137.66 199.21
  Q 135.59 199.21 134.11 198.76
  Q 124.47 195.84 120.52 188.18
  Q 115.96 179.34 116.40 166.64
  Q 116.57 161.88 120.22 150.38
  A 4.78 4.59 70.1 0 1 120.63 149.45
  Q 123.17 145.21 125.25 142.41
  Q 127.21 139.78 132.52 136.35
  Q 134.23 135.24 137.49 135.23
  Z"
/>
<path fill="#99b838" d="
  M 83.02 195.18
  Q 78.58 192.36 76.50 187.82
  Q 73.26 180.76 73.66 174.03
  Q 73.76 172.34 75.75 164.56
  Q 76.92 159.98 79.32 155.62
  Q 84.05 147.00 89.13 141.20
  A 0.44 0.44 0.0 0 1 89.86 141.30
  L 100.42 163.28
  A 3.47 3.28 27.4 0 1 100.65 163.94
  C 102.48 171.61 103.56 176.23 101.87 183.39
  Q 100.71 188.33 98.16 191.23
  Q 95.09 194.72 91.07 196.46
  A 1.51 1.51 0.0 0 1 89.00 195.41
  Q 85.86 181.68 88.62 166.42
  A 0.35 0.35 0.0 0 0 87.96 166.22
  Q 87.14 168.16 84.73 173.67
  C 82.28 179.28 82.67 188.70 83.44 194.91
  A 0.28 0.28 0.0 0 1 83.02 195.18
  Z"
/>
<path fill="#e68437" d="
  M 635.89 165.69
  A 0.53 0.53 0.0 0 1 636.27 166.60
  L 619.23 183.64
  A 0.58 0.57 47.7 0 0 619.20 184.42
  L 624.88 191.23
  A 1.23 1.12 -79.3 0 1 625.06 191.52
  Q 626.28 194.28 629.06 196.97
  A 1.45 1.35 -88.0 0 1 629.19 197.12
  L 637.65 209.00
  A 0.67 0.67 0.0 0 1 637.10 210.06
  L 624.72 210.06
  A 1.57 1.56 -22.1 0 1 623.60 209.59
  L 620.64 206.64
  A 3.46 3.45 10.5 0 1 619.93 205.61
  Q 618.55 202.59 616.05 200.19
  A 0.83 0.78 -88.1 0 1 615.91 200.03
  L 610.60 192.11
  A 0.55 0.55 0.0 0 0 609.75 192.02
  L 604.36 197.41
  A 4.03 4.03 0.0 0 0 603.18 200.26
  L 603.18 209.42
  A 0.57 0.57 0.0 0 1 602.61 209.99
  L 590.78 209.99
  A 0.40 0.40 0.0 0 1 590.38 209.59
  L 590.38 150.10
  A 0.80 0.80 0.0 0 1 591.18 149.30
  L 602.42 149.30
  A 0.69 0.69 0.0 0 1 603.11 149.99
  L 603.11 182.52
  A 0.63 0.63 0.0 0 0 604.15 183.00
  C 606.14 181.29 607.21 179.33 609.22 177.97
  C 611.90 176.15 613.59 172.87 616.36 171.08
  Q 618.66 169.61 620.25 166.50
  A 1.48 1.48 0.0 0 1 621.57 165.69
  L 635.89 165.69
  Z"
/>
<path fill="#99b838" d="
  M 363.80 150.85
  C 369.10 151.05 374.96 152.84 379.84 155.12
  A 2.35 2.32 78.1 0 1 380.37 155.47
  L 386.83 161.07
  A 3.45 3.35 -86.4 0 1 387.48 161.83
  L 391.84 168.65
  A 4.63 4.57 -71.2 0 1 392.28 169.56
  C 394.78 176.75 395.18 189.26 390.72 196.18
  Q 385.19 204.77 378.80 207.53
  C 372.98 210.05 367.69 211.59 361.57 211.36
  C 355.44 211.14 350.28 209.21 344.66 206.27
  Q 338.49 203.05 333.61 194.07
  C 329.67 186.84 330.99 174.40 334.02 167.41
  A 4.63 4.57 75.4 0 1 334.52 166.53
  L 339.37 160.05
  A 3.45 3.35 -89.4 0 1 340.08 159.34
  L 346.93 154.24
  A 2.35 2.32 -73.8 0 1 347.48 153.93
  C 352.52 152.01 358.50 150.66 363.80 150.85
  Z
  M 362.2742 162.3823
  A 18.83 18.14 -90.9 0 0 344.4322 181.4949
  A 18.83 18.14 -90.9 0 0 362.8658 200.0377
  A 18.83 18.14 -90.9 0 0 380.7078 180.9251
  A 18.83 18.14 -90.9 0 0 362.2742 162.3823
  Z"
/>
<path fill="#e68437" d="
  M 478.13 161.13
  L 470.43 168.82
  A 0.23 0.23 0.0 0 1 470.11 168.83
  Q 458.28 157.54 443.52 166.06
  A 1.54 1.41 -84.4 0 0 443.12 166.42
  L 438.34 172.59
  A 4.36 4.29 -17.9 0 0 437.64 173.93
  C 435.69 179.98 435.91 187.45 440.41 192.62
  Q 444.40 197.20 448.46 198.83
  C 455.99 201.86 464.22 198.92 469.65 193.34
  A 0.84 0.84 0.0 0 1 470.85 193.34
  L 477.96 200.44
  A 0.83 0.82 -42.7 0 1 477.91 201.65
  L 472.68 206.16
  A 4.32 4.23 13.3 0 1 471.50 206.87
  Q 466.26 209.00 465.93 209.13
  Q 456.43 212.85 446.82 210.40
  C 443.76 209.61 440.63 208.09 437.79 207.02
  A 4.73 4.71 74.9 0 1 436.49 206.27
  L 431.28 202.02
  A 5.65 5.53 3.6 0 1 430.08 200.69
  L 425.62 193.88
  A 2.68 2.58 20.7 0 1 425.35 193.31
  C 422.95 185.46 422.14 172.41 427.54 165.55
  Q 429.51 163.05 430.56 161.11
  A 1.60 1.53 85.9 0 1 430.99 160.59
  L 438.03 154.98
  A 2.07 1.99 12.5 0 1 438.49 154.70
  Q 454.66 146.99 471.19 154.57
  A 1.61 1.30 -6.0 0 1 471.53 154.79
  L 478.10 160.47
  A 0.46 0.45 42.9 0 1 478.13 161.13
  Z"
/>
<path fill="#99b838" d="
  M 320.41 169.13
  A 0.43 0.43 0.0 0 1 319.78 169.11
  Q 317.05 165.86 312.25 163.89
  C 304.12 160.55 293.40 163.54 289.48 171.89
  Q 283.95 183.68 291.59 194.15
  A 4.07 3.83 87.6 0 0 292.48 195.02
  C 294.29 196.32 295.74 197.73 297.66 198.49
  Q 305.31 201.55 311.92 198.67
  Q 313.55 197.95 319.66 193.83
  A 0.81 0.79 44.0 0 1 320.54 193.83
  C 322.95 195.43 326.52 198.15 327.41 200.94
  A 1.34 1.33 -39.8 0 1 327.31 202.00
  Q 325.93 204.44 322.74 206.26
  Q 303.92 216.99 285.28 205.71
  A 2.17 2.16 82.0 0 1 284.91 205.43
  L 279.24 200.15
  A 0.89 0.89 0.0 0 1 279.03 199.89
  Q 274.16 191.60 273.49 187.98
  Q 272.16 180.80 273.78 173.99
  Q 274.10 172.63 276.89 166.78
  Q 278.65 163.07 281.52 160.46
  Q 287.04 155.43 289.57 154.32
  Q 302.73 148.53 316.70 152.94
  Q 320.37 154.09 322.73 155.93
  Q 325.70 158.24 327.62 160.40
  A 1.15 1.15 0.0 0 1 327.57 161.97
  L 320.41 169.13
  Z"
/>
<path fill="#99b838" d="
  M 235.56 187.16
  L 235.56 198.87
  A 0.77 0.77 0.0 0 0 236.33 199.64
  L 266.26 199.64
  A 0.77 0.77 0.0 0 1 267.03 200.41
  L 267.03 209.43
  A 0.77 0.77 0.0 0 1 266.26 210.20
  L 222.94 210.20
  A 0.77 0.77 0.0 0 1 222.17 209.43
  L 222.17 153.41
  A 0.77 0.77 0.0 0 1 222.94 152.64
  L 265.22 152.64
  A 0.77 0.77 0.0 0 1 265.99 153.41
  L 265.99 162.64
  A 0.77 0.77 0.0 0 1 265.22 163.41
  L 236.22 163.41
  A 0.77 0.77 0.0 0 0 235.45 164.18
  L 235.45 175.17
  A 0.77 0.77 0.0 0 0 236.22 175.94
  L 261.37 175.94
  A 0.77 0.77 0.0 0 1 262.14 176.71
  L 262.14 185.62
  A 0.77 0.77 0.0 0 1 261.37 186.39
  L 236.33 186.39
  A 0.77 0.77 0.0 0 0 235.56 187.16
  Z"
/>
<path fill="#e68437" d="
  M 519.94 206.49
  C 511.26 210.64 504.61 212.52 494.83 208.74
  Q 487.93 206.08 484.97 201.07
  Q 476.48 186.73 485.90 173.07
  A 3.96 3.82 89.0 0 1 486.71 172.20
  C 488.92 170.44 492.31 167.12 495.43 166.12
  C 500.83 164.37 512.33 164.11 517.27 167.33
  C 521.61 170.15 525.99 174.03 527.51 179.23
  C 529.24 185.18 529.70 196.90 524.65 201.80
  Q 522.24 204.14 520.98 205.67
  A 3.18 3.13 6.2 0 1 519.94 206.49
  Z
  M 505.5635 175.2821
  A 12.69 11.50 -87.5 0 0 493.5209 187.4584
  A 12.69 11.50 -87.5 0 0 504.4565 200.6379
  A 12.69 11.50 -87.5 0 0 516.4991 188.4616
  A 12.69 11.50 -87.5 0 0 505.5635 175.2821
  Z"
/>
<path fill="#e68437" d="
  M 558.27 164.95
  Q 564.63 164.94 566.99 165.84
  C 577.18 169.74 583.30 179.49 582.30 190.50
  Q 581.89 195.03 580.51 197.51
  Q 577.43 203.05 574.70 205.47
  Q 572.97 207.02 567.97 208.91
  Q 562.87 210.83 558.39 210.85
  Q 553.92 210.86 548.81 208.96
  Q 543.79 207.10 542.06 205.56
  Q 539.31 203.15 536.20 197.63
  Q 534.81 195.16 534.38 190.63
  C 533.32 179.62 539.38 169.84 549.55 165.89
  Q 551.90 164.97 558.27 164.95
  Z
  M 558.4484 175.4616
  A 12.63 11.71 -89.1 0 0 546.5414 187.9061
  A 12.63 11.71 -89.1 0 0 558.0516 200.7184
  A 12.63 11.71 -89.1 0 0 569.9586 188.2739
  A 12.63 11.71 -89.1 0 0 558.4484 175.4616
  Z"
/>
</svg>
