<?xml version="1.0" encoding="UTF-8" standalone="no"?>
<!DOCTYPE svg PUBLIC "-//W3C//DTD SVG 1.1//EN" "http://www.w3.org/Graphics/SVG/1.1/DTD/svg11.dtd">
<svg xmlns="http://www.w3.org/2000/svg" version="1.1" viewBox="0.00 0.00 691.00 361.00">
<g stroke-width="2.00" fill="none" stroke-linecap="butt">
<path stroke="#7a814a" vector-effect="non-scaling-stroke" d="
  M 392.04 308.17
  L 387.25 308.05"
/>
<path stroke="#7a814a" vector-effect="non-scaling-stroke" d="
  M 380.04 78.53
  Q 380.03 78.54 374.29 88.16
  A 0.34 0.34 0.0 0 0 374.82 88.57
  Q 376.05 87.37 377.67 87.29
  C 382.34 87.08 385.45 84.27 386.06 79.54
  Q 386.66 74.76 387.73 71.11
  A 0.31 0.30 6.8 0 0 387.42 70.72
  C 381.14 71.07 373.63 74.43 373.87 81.96
  Q 373.96 84.76 373.63 85.10
  A 0.44 0.44 0.0 0 0 374.12 85.81
  C 375.80 85.13 376.64 80.21 379.64 78.27
  A 0.26 0.26 0.0 0 1 380.04 78.53"
/>
<path stroke="#7a814a" vector-effect="non-scaling-stroke" d="
  M 370.90 83.43
  Q 371.87 84.15 372.38 84.97
  A 0.48 0.48 0.0 0 0 373.27 84.69
  C 372.98 79.65 368.61 78.12 364.26 77.97
  A 0.46 0.46 0.0 0 0 363.81 78.58
  C 365.26 82.76 365.40 88.62 371.75 87.73
  A 0.85 0.84 71.0 0 0 372.36 86.47
  L 370.71 83.60
  A 0.13 0.13 0.0 0 1 370.90 83.43"
/>
</g>
<path fill="#eca661" d="
  M 339.57 55.07
  Q 391.87 55.07 394.02 55.10
  Q 395.74 55.13 397.67 56.31
  Q 402.71 59.39 402.67 65.25
  Q 402.59 74.52 402.61 173.60
  A 0.56 0.55 -89.9 0 1 402.05 174.16
  Q 376.39 174.12 339.58 174.12
  Q 302.77 174.13 277.11 174.17
  A 0.56 0.55 89.9 0 1 276.55 173.61
  Q 276.55 74.53 276.47 65.26
  Q 276.43 59.40 281.47 56.32
  Q 283.40 55.14 285.11 55.11
  Q 287.27 55.08 339.57 55.07
  Z
  M 380.04 78.53
  Q 380.03 78.54 374.29 88.16
  A 0.34 0.34 0.0 0 0 374.82 88.57
  Q 376.05 87.37 377.67 87.29
  C 382.34 87.08 385.45 84.27 386.06 79.54
  Q 386.66 74.76 387.73 71.11
  A 0.31 0.30 6.8 0 0 387.42 70.72
  C 381.14 71.07 373.63 74.43 373.87 81.96
  Q 373.96 84.76 373.63 85.10
  A 0.44 0.44 0.0 0 0 374.12 85.81
  C 375.80 85.13 376.64 80.21 379.64 78.27
  A 0.26 0.26 0.0 0 1 380.04 78.53
  Z
  M 370.90 83.43
  Q 371.87 84.15 372.38 84.97
  A 0.48 0.48 0.0 0 0 373.27 84.69
  C 372.98 79.65 368.61 78.12 364.26 77.97
  A 0.46 0.46 0.0 0 0 363.81 78.58
  C 365.26 82.76 365.40 88.62 371.75 87.73
  A 0.85 0.84 71.0 0 0 372.36 86.47
  L 370.71 83.60
  A 0.13 0.13 0.0 0 1 370.90 83.43
  Z
  M 293.95 114.00
  A 3.17 3.17 0.0 0 0 290.78 110.83
  L 290.68 110.83
  A 3.17 3.17 0.0 0 0 287.51 114.00
  L 287.51 162.48
  A 3.17 3.17 0.0 0 0 290.68 165.65
  L 290.78 165.65
  A 3.17 3.17 0.0 0 0 293.95 162.48
  L 293.95 114.00
  Z"
/>
<path fill="#075b32" d="
  M 379.64 78.27
  C 376.64 80.21 375.80 85.13 374.12 85.81
  A 0.44 0.44 0.0 0 1 373.63 85.10
  Q 373.96 84.76 373.87 81.96
  C 373.63 74.43 381.14 71.07 387.42 70.72
  A 0.31 0.30 6.8 0 1 387.73 71.11
  Q 386.66 74.76 386.06 79.54
  C 385.45 84.27 382.34 87.08 377.67 87.29
  Q 376.05 87.37 374.82 88.57
  A 0.34 0.34 0.0 0 1 374.29 88.16
  Q 380.03 78.54 380.04 78.53
  A 0.26 0.26 0.0 0 0 379.64 78.27
  Z"
/>
<path fill="#075b32" d="
  M 370.71 83.60
  L 372.36 86.47
  A 0.85 0.84 71.0 0 1 371.75 87.73
  C 365.40 88.62 365.26 82.76 363.81 78.58
  A 0.46 0.46 0.0 0 1 364.26 77.97
  C 368.61 78.12 372.98 79.65 373.27 84.69
  A 0.48 0.48 0.0 0 1 372.38 84.97
  Q 371.87 84.15 370.90 83.43
  A 0.13 0.13 0.0 0 0 370.71 83.60
  Z"
/>
<path fill="#eca661" d="
  M 392.04 308.17
  L 387.25 308.05
  Q 385.76 307.14 383.50 307.15
  Q 341.99 307.41 296.82 307.28
  C 294.61 307.27 292.70 308.24 290.23 308.79
  A 1.70 1.70 0.0 0 1 288.96 308.57
  Q 287.35 307.59 284.97 307.13
  C 278.62 305.90 276.60 301.42 276.61 295.30
  Q 276.68 238.90 276.55 178.54
  A 0.26 0.26 0.0 0 1 276.81 178.28
  L 401.67 178.28
  A 0.93 0.93 0.0 0 1 402.60 179.21
  Q 402.59 289.82 402.52 297.23
  Q 402.48 301.89 399.16 304.92
  C 397.43 306.49 394.36 307.14 392.04 308.17
  Z
  M 293.98 189.45
  A 3.18 3.18 0.0 0 0 290.80 186.27
  L 290.68 186.27
  A 3.18 3.18 0.0 0 0 287.50 189.45
  L 287.50 237.39
  A 3.18 3.18 0.0 0 0 290.68 240.57
  L 290.80 240.57
  A 3.18 3.18 0.0 0 0 293.98 237.39
  L 293.98 189.45
  Z"
/>
<path fill="#075b32" d="
  M 392.04 308.17
  Q 391.85 309.20 390.50 309.20
  Q 388.39 309.21 387.25 308.05
  L 392.04 308.17
  Z"
/>
</svg>
