<?xml version="1.0" encoding="UTF-8" standalone="no"?>
<!DOCTYPE svg PUBLIC "-//W3C//DTD SVG 1.1//EN" "http://www.w3.org/Graphics/SVG/1.1/DTD/svg11.dtd">
<svg xmlns="http://www.w3.org/2000/svg" version="1.1" viewBox="0.00 0.00 500.00 500.00">
<g stroke-width="2.00" fill="none" stroke-linecap="butt">
<path stroke="#d39051" vector-effect="non-scaling-stroke" d="
  M 353.66 245.09
  L 341.31 244.96"
/>
<path stroke="#d39051" vector-effect="non-scaling-stroke" d="
  M 160.85 244.75
  L 148.89 245.26"
/>
<path stroke="#d39051" vector-effect="non-scaling-stroke" d="
  M 348.18 272.57
  L 331.51 272.10
  A 0.61 0.61 0.0 0 1 330.96 271.28
  L 332.71 266.45
  A 0.96 0.96 0.0 0 0 331.81 265.16
  L 327.52 265.16
  A 1.54 1.53 -86.6 0 0 326.00 266.52
  L 325.41 271.82
  A 0.65 0.63 3.0 0 1 324.77 272.38
  L 294.02 272.38
  A 0.86 0.85 3.3 0 1 293.17 271.43
  L 293.68 266.89
  A 1.43 1.42 -83.7 0 0 292.43 265.32
  L 290.08 265.06
  A 2.04 2.03 -83.5 0 0 287.83 266.86
  L 287.34 271.27
  A 1.26 1.26 0.0 0 1 286.09 272.38
  L 256.02 272.38
  A 1.41 1.41 0.0 0 1 254.61 270.97
  L 254.61 266.55
  A 1.47 1.47 0.0 0 0 253.14 265.08
  L 250.11 265.08
  A 1.47 1.47 0.0 0 0 248.64 266.55
  L 248.64 271.45
  A 0.91 0.91 0.0 0 1 247.73 272.36
  L 216.95 272.36
  A 0.98 0.97 -4.9 0 1 215.99 271.56
  L 215.14 266.59
  A 1.54 1.54 0.0 0 0 213.62 265.31
  L 211.08 265.31
  A 1.13 1.13 0.0 0 0 209.95 266.44
  L 209.95 271.78
  A 1.06 1.06 0.0 0 1 208.83 272.84
  Q 192.50 271.89 178.62 272.54
  A 0.93 0.93 0.0 0 1 177.66 271.77
  L 176.76 266.54
  A 1.70 1.70 0.0 0 0 175.08 265.12
  L 172.42 265.12
  A 1.36 1.36 0.0 0 0 171.08 266.71
  L 171.98 271.98
  A 0.51 0.50 87.8 0 1 171.44 272.57
  Q 163.11 271.83 154.57 272.53"
/>
<path stroke="#a5a84a" vector-effect="non-scaling-stroke" d="
  M 206.89 244.70
  L 172.96 244.68"
/>
<path stroke="#eb8e4c" vector-effect="non-scaling-stroke" d="
  M 299.74 244.93
  L 259.37 245.05"
/>
<path stroke="#eb8e4c" vector-effect="non-scaling-stroke" d="
  M 337.96 244.96
  L 301.56 244.99"
/>
<path stroke="#686755" vector-effect="non-scaling-stroke" d="
  M 191.99 217.70
  Q 191.16 217.51 190.52 217.82"
/>
<path stroke="#eb8e4c" vector-effect="non-scaling-stroke" d="
  M 243.94 245.07
  L 208.87 244.84"
/>
<path stroke="#686755" vector-effect="non-scaling-stroke" d="
  M 190.39 207.99
  L 189.97 212.55"
/>
<path stroke="#af646d" vector-effect="non-scaling-stroke" d="
  M 253.50 244.75
  L 246.91 244.90"
/>
<path stroke="#d39051" vector-effect="non-scaling-stroke" d="
  M 347.10 275.85
  L 330.74 275.52
  A 1.27 1.26 4.0 0 0 329.45 276.64
  L 328.77 282.64
  A 0.95 0.94 -87.9 0 0 329.74 283.69
  L 345.41 283.22"
/>
<path stroke="#d39051" vector-effect="non-scaling-stroke" d="
  M 344.66 286.83
  L 328.67 287.00
  A 0.73 0.73 0.0 0 0 327.97 287.56
  L 326.28 295.03
  A 0.54 0.54 0.0 0 0 326.86 295.69
  Q 334.36 294.95 342.40 295.95"
/>
<path stroke="#d39051" vector-effect="non-scaling-stroke" d="
  M 341.54 299.00
  L 326.47 298.84
  A 1.37 1.36 -83.1 0 0 325.13 299.90
  L 323.67 306.34
  A 1.13 1.13 0.0 0 0 324.74 307.72
  L 339.26 308.09"
/>
<path stroke="#d39051" vector-effect="non-scaling-stroke" d="
  M 338.75 311.12
  L 323.99 311.30
  A 1.41 1.41 0.0 0 0 322.64 312.39
  L 321.19 318.79
  A 0.79 0.78 6.8 0 0 321.95 319.75
  L 336.67 319.77"
/>
<path stroke="#d39051" vector-effect="non-scaling-stroke" d="
  M 335.62 323.36
  L 321.24 322.95
  A 1.64 1.64 0.0 0 0 319.56 324.41
  L 318.89 330.38
  A 1.38 1.38 0.0 0 0 320.24 331.91
  L 333.63 332.14"
/>
<path stroke="#d39051" vector-effect="non-scaling-stroke" d="
  M 332.87 335.18
  L 318.32 335.43
  A 0.49 0.49 0.0 0 0 317.84 335.81
  L 315.96 344.11
  A 0.26 0.26 0.0 0 0 316.22 344.42
  L 327.86 344.17"
/>
<path stroke="#d39051" vector-effect="non-scaling-stroke" d="
  M 324.24 348.15
  L 315.80 347.14
  A 0.61 0.60 -82.8 0 0 315.13 347.66
  L 314.21 354.60"
/>
<path stroke="#d39051" vector-effect="non-scaling-stroke" d="
  M 307.36 356.57
  L 309.40 348.25
  A 0.73 0.73 0.0 0 0 308.69 347.34
  L 284.35 347.34
  A 0.62 0.61 -86.3 0 0 283.74 347.88
  L 282.46 357.03"
/>
<path stroke="#d39051" vector-effect="non-scaling-stroke" d="
  M 276.77 357.04
  L 277.86 348.19
  A 0.87 0.86 3.5 0 0 277.00 347.22
  L 255.47 347.22
  A 0.80 0.79 -89.3 0 0 254.68 348.00
  L 254.55 357.00"
/>
<path stroke="#d39051" vector-effect="non-scaling-stroke" d="
  M 248.80 356.98
  L 248.44 347.88
  A 0.62 0.62 0.0 0 0 247.82 347.28
  L 226.04 347.28
  A 0.60 0.59 -0.9 0 0 225.44 347.89
  L 225.73 357.02"
/>
<path stroke="#d39051" vector-effect="non-scaling-stroke" d="
  M 219.78 357.04
  L 219.17 347.81
  A 0.66 0.66 0.0 0 0 218.51 347.19
  L 195.12 347.19
  A 1.19 1.18 85.6 0 0 193.95 348.56
  L 195.18 356.55"
/>
<path stroke="#d39051" vector-effect="non-scaling-stroke" d="
  M 188.20 354.51
  L 187.79 348.54
  A 1.35 1.34 -2.8 0 0 186.39 347.28
  L 178.03 347.64"
/>
<path stroke="#d39051" vector-effect="non-scaling-stroke" d="
  M 174.74 344.05
  L 185.66 344.47
  A 0.91 0.89 86.3 0 0 186.58 343.41
  L 185.44 336.73
  A 1.69 1.69 0.0 0 0 183.75 335.32
  L 170.12 335.49"
/>
<path stroke="#d39051" vector-effect="non-scaling-stroke" d="
  M 169.04 331.80
  L 183.56 331.71
  A 0.38 0.38 0.0 0 0 183.93 331.27
  L 182.57 323.34
  A 0.40 0.39 -5.9 0 0 182.17 323.02
  L 166.90 323.37"
/>
<path stroke="#d39051" vector-effect="non-scaling-stroke" d="
  M 166.08 319.75
  L 180.96 319.96
  A 0.87 0.87 0.0 0 0 181.83 318.94
  L 180.73 312.51
  A 1.48 1.47 85.3 0 0 179.29 311.28
  L 164.16 311.18"
/>
<path stroke="#d39051" vector-effect="non-scaling-stroke" d="
  M 163.22 307.72
  L 178.40 307.41
  A 0.60 0.60 0.0 0 0 178.98 306.71
  L 177.73 299.43
  A 0.58 0.57 84.4 0 0 177.14 298.94
  L 161.15 299.56"
/>
<path stroke="#d39051" vector-effect="non-scaling-stroke" d="
  M 160.02 295.26
  L 175.82 295.96
  A 1.18 1.18 0.0 0 0 177.01 294.44
  L 175.26 288.53
  A 2.21 2.21 0.0 0 0 173.00 286.95
  Q 170.58 287.11 162.26 286.65
  Q 160.62 286.56 158.30 287.29"
/>
<path stroke="#d39051" vector-effect="non-scaling-stroke" d="
  M 157.29 283.30
  Q 165.33 284.08 173.54 283.32
  A 0.67 0.67 0.0 0 0 174.14 282.54
  L 173.12 276.54
  A 1.35 1.34 82.9 0 0 171.70 275.43
  L 155.53 276.57"
/>
<path stroke="#686755" vector-effect="non-scaling-stroke" d="
  M 238.62 202.68
  L 238.20 206.20"
/>
<path stroke="#a49134" vector-effect="non-scaling-stroke" d="
  M 325.12 221.61
  Q 323.80 221.65 322.23 222.57
  C 320.40 223.64 318.05 221.48 316.74 221.99
  A 0.78 0.77 -42.7 0 0 316.68 223.41
  L 318.31 224.20
  A 0.90 0.89 -67.3 0 1 318.76 225.31
  L 318.19 226.87
  A 0.75 0.74 -2.6 0 0 319.21 227.80
  L 321.79 226.56
  A 1.19 1.17 -47.0 0 1 322.70 226.52
  L 325.04 227.37
  A 0.57 0.57 0.0 0 0 325.70 226.49
  Q 324.97 225.51 324.06 225.09
  A 0.44 0.44 0.0 0 1 323.97 224.35
  L 325.63 222.95
  A 0.76 0.76 0.0 0 0 325.12 221.61"
/>
<path stroke="#a49134" vector-effect="non-scaling-stroke" d="
  M 277.46 226.45
  Q 279.55 227.82 278.32 229.49
  A 1.03 1.02 43.5 0 0 278.36 230.75
  L 278.40 230.80
  A 0.65 0.65 0.0 0 0 279.36 230.84
  Q 280.81 229.34 282.60 229.61
  A 1.19 0.89 53.1 0 1 282.84 229.68
  L 285.56 230.74
  A 0.51 0.51 0.0 0 0 286.14 229.93
  L 284.83 228.37
  A 0.25 0.25 0.0 0 1 284.78 228.12
  L 285.62 225.82
  A 0.65 0.64 -88.2 0 0 284.84 224.98
  L 281.53 225.96
  A 1.02 0.98 -46.1 0 1 281.01 225.98
  L 277.96 225.29
  A 0.64 0.64 0.0 0 0 277.46 226.45"
/>
<path stroke="#a49134" vector-effect="non-scaling-stroke" d="
  M 224.97 231.93
  Q 224.44 232.82 224.59 233.20
  A 0.63 0.63 0.0 0 0 225.58 233.45
  Q 227.85 231.54 230.47 232.75
  A 0.55 0.54 -76.2 0 0 231.24 232.28
  Q 231.26 231.76 230.22 231.05
  A 0.87 0.86 21.5 0 1 229.84 230.19
  Q 229.94 229.52 230.75 228.62
  A 0.49 0.49 0.0 0 0 230.59 227.85
  Q 229.60 227.39 228.93 227.93
  Q 226.23 230.07 224.05 228.53
  A 0.43 0.42 42.5 0 0 223.53 228.55
  L 223.28 228.76
  A 0.36 0.35 50.0 0 0 223.24 229.27
  L 224.91 231.26
  A 0.59 0.57 40.7 0 1 224.97 231.93"
/>
<path stroke="#d39051" vector-effect="non-scaling-stroke" d="
  M 210.28 276.32
  A 0.71 0.71 0.0 0 0 209.58 275.73
  L 179.46 275.73
  A 0.71 0.71 0.0 0 0 178.78 276.64
  L 180.69 283.09
  A 0.71 0.71 0.0 0 0 181.37 283.60
  L 210.69 283.60
  A 0.71 0.71 0.0 0 0 211.39 282.77
  L 210.28 276.32"
/>
<path stroke="#d39051" vector-effect="non-scaling-stroke" d="
  M 291.77 283.12
  A 0.36 0.36 0.0 0 0 292.13 283.48
  L 322.29 283.48
  A 0.36 0.36 0.0 0 0 322.64 283.20
  L 324.22 276.24
  A 0.36 0.36 0.0 0 0 323.87 275.80
  L 292.13 275.80
  A 0.36 0.36 0.0 0 0 291.77 276.16
  L 291.77 283.12"
/>
<path stroke="#d39051" vector-effect="non-scaling-stroke" d="
  M 248.8549 276.7318
  A 0.99 0.99 0.0 0 0 247.8632 275.7436
  L 217.5633 275.7964
  A 0.99 0.99 0.0 0 0 216.5750 276.7882
  L 216.5851 282.5682
  A 0.99 0.99 0.0 0 0 217.5768 283.5564
  L 247.8767 283.5036
  A 0.99 0.99 0.0 0 0 248.8650 282.5118
  L 248.8549 276.7318"
/>
<path stroke="#d39051" vector-effect="non-scaling-stroke" d="
  M 286.76 276.68
  A 0.75 0.75 0.0 0 0 286.01 275.85
  L 254.67 275.85
  A 0.75 0.75 0.0 0 0 253.93 276.73
  L 254.98 282.90
  A 0.75 0.75 0.0 0 0 255.72 283.52
  L 285.32 283.52
  A 0.75 0.75 0.0 0 0 286.06 282.85
  L 286.76 276.68"
/>
<path stroke="#d39051" vector-effect="non-scaling-stroke" d="
  M 212.34 287.49
  A 0.66 0.66 0.0 0 0 211.68 286.83
  L 181.76 286.83
  A 0.66 0.66 0.0 0 0 181.11 287.60
  L 182.41 295.19
  A 0.66 0.66 0.0 0 0 183.06 295.74
  L 211.68 295.74
  A 0.66 0.66 0.0 0 0 212.34 295.08
  L 212.34 287.49"
/>
<path stroke="#d39051" vector-effect="non-scaling-stroke" d="
  M 248.96 294.66
  L 248.96 288.23
  A 1.46 1.46 0.0 0 0 247.43 286.77
  Q 231.88 287.50 218.25 286.47
  A 0.87 0.86 -2.8 0 0 217.33 287.48
  L 218.52 294.43
  A 1.43 1.43 0.0 0 0 219.93 295.62
  L 248.00 295.62
  A 0.96 0.96 0.0 0 0 248.96 294.66"
/>
<path stroke="#d39051" vector-effect="non-scaling-stroke" d="
  M 254.34 295.21
  A 0.35 0.35 0.0 0 0 254.69 295.56
  L 284.17 295.56
  A 0.35 0.35 0.0 0 0 284.51 295.25
  L 285.41 287.31
  A 0.35 0.35 0.0 0 0 285.06 286.92
  L 254.69 286.92
  A 0.35 0.35 0.0 0 0 254.34 287.27
  L 254.34 295.21"
/>
<path stroke="#d39051" vector-effect="non-scaling-stroke" d="
  M 321.56 287.52
  A 0.53 0.53 0.0 0 0 321.04 286.93
  L 291.98 286.93
  A 0.53 0.53 0.0 0 0 291.47 287.34
  L 289.74 294.93
  A 0.53 0.53 0.0 0 0 290.25 295.58
  L 320.19 295.58
  A 0.53 0.53 0.0 0 0 320.71 295.11
  L 321.56 287.52"
/>
<path stroke="#d39051" vector-effect="non-scaling-stroke" d="
  M 213.07 299.27
  A 0.32 0.32 0.0 0 0 212.75 299.00
  L 184.42 299.00
  A 0.32 0.32 0.0 0 0 184.10 299.37
  L 185.49 307.54
  A 0.32 0.32 0.0 0 0 185.81 307.81
  L 214.15 307.81
  A 0.32 0.32 0.0 0 0 214.47 307.44
  L 213.07 299.27"
/>
<path stroke="#d39051" vector-effect="non-scaling-stroke" d="
  M 288.91 306.99
  A 0.70 0.70 0.0 0 0 289.60 307.77
  L 316.38 307.77
  A 0.70 0.70 0.0 0 0 317.04 307.31
  L 319.70 300.00
  A 0.70 0.70 0.0 0 0 319.04 299.06
  L 290.43 299.06
  A 0.70 0.70 0.0 0 0 289.73 299.68
  L 288.91 306.99"
/>
<path stroke="#d39051" vector-effect="non-scaling-stroke" d="
  M 248.5916 300.0711
  A 1.06 1.06 0.0 0 0 247.5353 299.0074
  L 220.3954 298.9127
  A 1.06 1.06 0.0 0 0 219.3317 299.9690
  L 219.3084 306.6489
  A 1.06 1.06 0.0 0 0 220.3647 307.7126
  L 247.5046 307.8073
  A 1.06 1.06 0.0 0 0 248.5683 306.7510
  L 248.5916 300.0711"
/>
<path stroke="#d39051" vector-effect="non-scaling-stroke" d="
  M 283.69 299.90
  A 0.78 0.78 0.0 0 0 282.92 299.03
  L 255.87 299.03
  A 0.78 0.78 0.0 0 0 255.09 299.72
  L 254.29 306.89
  A 0.78 0.78 0.0 0 0 255.06 307.76
  L 282.11 307.76
  A 0.78 0.78 0.0 0 0 282.89 307.07
  L 283.69 299.90"
/>
<path stroke="#d39051" vector-effect="non-scaling-stroke" d="
  M 254.40 319.23
  A 0.34 0.34 0.0 0 0 254.74 319.57
  L 281.36 319.57
  A 0.34 0.34 0.0 0 0 281.69 319.27
  L 282.55 311.64
  A 0.34 0.34 0.0 0 0 282.21 311.26
  L 254.74 311.26
  A 0.34 0.34 0.0 0 0 254.40 311.60
  L 254.40 319.23"
/>
<path stroke="#d39051" vector-effect="non-scaling-stroke" d="
  M 187.45 319.20
  A 0.54 0.54 0.0 0 0 187.99 319.65
  L 215.48 319.65
  A 0.54 0.54 0.0 0 0 216.01 319.02
  L 214.75 311.61
  A 0.54 0.54 0.0 0 0 214.21 311.16
  L 186.71 311.16
  A 0.54 0.54 0.0 0 0 186.18 311.79
  L 187.45 319.20"
/>
<path stroke="#d39051" vector-effect="non-scaling-stroke" d="
  M 316.44 312.25
  A 0.94 0.94 0.0 0 0 315.51 311.20
  L 288.98 311.20
  A 0.94 0.94 0.0 0 0 288.05 312.04
  L 287.32 318.56
  A 0.94 0.94 0.0 0 0 288.25 319.60
  L 314.77 319.60
  A 0.94 0.94 0.0 0 0 315.70 318.77
  L 316.44 312.25"
/>
<path stroke="#d39051" vector-effect="non-scaling-stroke" d="
  M 249.30 312.02
  A 0.76 0.76 0.0 0 0 248.55 311.17
  L 221.75 311.17
  A 0.76 0.76 0.0 0 0 220.99 311.93
  L 220.99 318.93
  A 0.76 0.76 0.0 0 0 221.75 319.69
  L 247.76 319.69
  A 0.76 0.76 0.0 0 0 248.52 319.02
  L 249.30 312.02"
/>
<path stroke="#d39051" vector-effect="non-scaling-stroke" d="
  M 216.62 323.87
  A 0.79 0.79 0.0 0 0 215.83 323.08
  L 189.84 323.08
  A 0.79 0.79 0.0 0 0 189.06 324.00
  L 190.31 331.33
  A 0.79 0.79 0.0 0 0 191.09 331.99
  L 215.83 331.99
  A 0.79 0.79 0.0 0 0 216.62 331.20
  L 216.62 323.87"
/>
<path stroke="#d39051" vector-effect="non-scaling-stroke" d="
  M 248.62 323.46
  A 0.35 0.35 0.0 0 0 248.27 323.11
  L 222.23 323.11
  A 0.35 0.35 0.0 0 0 221.89 323.52
  L 223.26 331.57
  A 0.35 0.35 0.0 0 0 223.61 331.86
  L 248.27 331.86
  A 0.35 0.35 0.0 0 0 248.62 331.51
  L 248.62 323.46"
/>
<path stroke="#d39051" vector-effect="non-scaling-stroke" d="
  M 254.26 330.99
  A 0.78 0.78 0.0 0 0 255.03 331.86
  L 279.12 331.86
  A 0.78 0.78 0.0 0 0 279.90 331.17
  L 280.70 324.00
  A 0.78 0.78 0.0 0 0 279.93 323.13
  L 255.84 323.13
  A 0.78 0.78 0.0 0 0 255.06 323.82
  L 254.26 330.99"
/>
<path stroke="#d39051" vector-effect="non-scaling-stroke" d="
  M 286.25 330.78
  A 1.07 1.07 0.0 0 0 287.32 331.85
  L 311.52 331.85
  A 1.07 1.07 0.0 0 0 312.56 331.02
  L 314.05 324.44
  A 1.07 1.07 0.0 0 0 313.01 323.13
  L 287.32 323.13
  A 1.07 1.07 0.0 0 0 286.25 324.20
  L 286.25 330.78"
/>
<path stroke="#d39051" vector-effect="non-scaling-stroke" d="
  M 254.45 343.86
  A 0.34 0.34 0.0 0 0 254.79 344.20
  L 278.21 344.20
  A 0.34 0.34 0.0 0 0 278.54 343.90
  L 279.49 335.52
  A 0.34 0.34 0.0 0 0 279.15 335.14
  L 254.79 335.14
  A 0.34 0.34 0.0 0 0 254.45 335.48
  L 254.45 343.86"
/>
<path stroke="#d39051" vector-effect="non-scaling-stroke" d="
  M 192.55 343.70
  A 0.74 0.74 0.0 0 0 193.28 344.32
  L 217.97 344.32
  A 0.74 0.74 0.0 0 0 218.70 343.46
  L 217.38 335.70
  A 0.74 0.74 0.0 0 0 216.65 335.08
  L 191.96 335.08
  A 0.74 0.74 0.0 0 0 191.23 335.94
  L 192.55 343.70"
/>
<path stroke="#d39051" vector-effect="non-scaling-stroke" d="
  M 248.87 335.45
  A 0.31 0.31 0.0 0 0 248.56 335.14
  L 223.38 335.14
  A 0.31 0.31 0.0 0 0 223.07 335.50
  L 224.52 343.93
  A 0.31 0.31 0.0 0 0 224.82 344.19
  L 248.56 344.19
  A 0.31 0.31 0.0 0 0 248.87 343.88
  L 248.87 335.45"
/>
<path stroke="#d39051" vector-effect="non-scaling-stroke" d="
  M 311.76 336.21
  A 0.85 0.85 0.0 0 0 310.93 335.17
  L 286.17 335.17
  A 0.85 0.85 0.0 0 0 285.34 335.83
  L 283.67 343.18
  A 0.85 0.85 0.0 0 0 284.50 344.22
  L 309.26 344.22
  A 0.85 0.85 0.0 0 0 310.09 343.56
  L 311.76 336.21"
/>
</g>
<path fill="#b97b40" d="
  M 353.66 245.09
  L 341.31 244.96
  C 343.78 206.33 322.18 170.04 286.91 154.26
  C 252.57 138.89 213.30 147.24 187.20 173.97
  Q 165.26 196.45 161.23 228.75
  Q 160.72 232.84 160.85 244.75
  L 148.89 245.26
  Q 147.10 210.62 165.09 182.62
  Q 187.02 148.48 226.01 137.79
  C 251.41 130.83 280.06 135.04 302.64 148.79
  Q 318.68 158.55 330.56 173.38
  Q 354.74 203.57 353.66 245.09
  Z"
/>
<path fill="#5eab32" d="
  M 278.33 186.94
  A 0.55 0.55 0.0 0 0 279.41 187.06
  L 280.61 181.80
  A 1.25 1.25 0.0 0 1 282.26 180.90
  L 284.90 181.86
  A 1.24 1.23 -70.0 0 1 285.64 183.45
  L 281.67 194.38
  A 0.78 0.77 -79.5 0 1 280.95 194.88
  C 277.65 194.90 276.37 195.49 273.59 196.16
  A 0.77 0.77 0.0 0 1 272.76 195.83
  L 266.46 186.28
  A 1.50 1.49 -33.5 0 1 266.89 184.20
  L 268.69 183.01
  A 1.21 1.21 0.0 0 1 270.37 183.36
  L 273.60 188.27
  A 0.28 0.28 0.0 0 0 274.11 188.06
  L 272.57 179.05
  A 1.89 1.88 -9.8 0 1 274.11 176.88
  L 276.22 176.52
  A 1.81 1.81 0.0 0 1 278.33 178.30
  L 278.33 186.94
  Z"
/>
<path fill="#5eab32" d="
  M 316.84 193.11
  L 319.63 196.34
  A 0.33 0.33 0.0 0 1 319.59 196.81
  L 310.06 204.82
  A 0.33 0.33 0.0 0 1 309.72 204.87
  L 301.94 201.63
  A 0.33 0.33 0.0 0 1 301.73 201.34
  L 301.34 188.67
  A 0.33 0.33 0.0 0 1 301.66 188.33
  L 305.60 188.19
  A 0.33 0.33 0.0 0 1 305.94 188.51
  L 306.14 194.99
  A 0.33 0.33 0.0 0 0 306.78 195.11
  L 310.74 185.51
  A 0.33 0.33 0.0 0 1 311.17 185.33
  L 315.39 187.04
  A 0.33 0.33 0.0 0 1 315.57 187.48
  L 311.55 196.28
  A 0.33 0.33 0.0 0 0 312.06 196.67
  L 316.38 193.08
  A 0.33 0.33 0.0 0 1 316.84 193.11
  Z"
/>
<path fill="#5eab32" d="
  M 238.62 202.68
  L 238.20 206.20
  Q 228.14 212.06 220.60 204.15
  Q 217.92 201.33 216.18 195.12
  A 0.59 0.58 71.7 0 1 216.53 194.42
  Q 222.80 191.93 226.77 192.34
  Q 235.34 193.24 238.62 202.68
  Z"
/>
<path fill="#712378" d="
  M 238.20 206.20
  L 238.62 202.68
  Q 239.46 198.93 241.39 196.48
  A 2.27 2.27 0.0 0 1 244.28 195.91
  L 244.52 196.04
  A 1.47 1.47 0.0 0 1 244.83 198.37
  Q 240.12 203.00 241.28 209.62
  A 1.33 1.33 0.0 0 1 240.34 211.12
  L 240.04 211.20
  A 0.81 0.81 0.0 0 1 239.02 210.57
  L 238.20 206.20
  Z"
/>
<path fill="#5eab32" d="
  M 278.09 207.51
  A 0.09 0.09 0.0 0 0 278.05 207.33
  L 268.37 207.33
  A 0.22 0.21 85.2 0 1 268.16 207.15
  Q 267.05 200.57 273.00 198.34
  C 278.66 196.23 288.13 195.77 289.32 203.69
  Q 289.65 205.87 289.75 208.66
  A 2.04 1.96 -36.3 0 1 289.62 209.42
  L 285.96 219.49
  A 0.58 0.58 0.0 0 1 285.26 219.85
  C 281.76 218.86 274.62 219.13 271.62 221.00
  A 0.50 0.50 0.0 0 1 270.86 220.65
  L 270.48 218.47
  A 0.62 0.62 0.0 0 1 270.99 217.76
  L 275.99 216.90
  A 0.32 0.32 0.0 0 0 275.94 216.27
  L 270.40 216.27
  A 0.89 0.88 84.9 0 1 269.53 215.54
  L 268.57 209.94
  A 0.74 0.74 0.0 0 1 269.13 209.10
  Q 272.66 208.24 275.44 208.14
  Q 276.82 208.09 278.09 207.51
  Z"
/>
<path fill="#5eab32" d="
  M 190.39 207.99
  L 189.97 212.55
  C 182.55 214.79 178.33 209.37 177.32 202.81
  A 1.14 1.13 -7.6 0 1 178.31 201.52
  C 183.46 200.91 188.49 202.68 190.39 207.99
  Z"
/>
<path fill="#712378" d="
  M 191.99 217.70
  Q 191.16 217.51 190.52 217.82
  L 189.97 212.55
  L 190.39 207.99
  Q 190.39 208.24 190.45 208.42
  A 0.48 0.48 0.0 0 0 191.35 208.43
  Q 192.28 206.06 194.10 203.94
  A 1.96 1.95 36.7 0 1 196.65 203.57
  L 196.92 203.74
  A 1.30 1.29 -46.4 0 1 196.97 205.88
  Q 191.80 210.06 191.99 217.70
  Z"
/>
<path fill="#e97736" d="
  M 300.02 213.62
  A 0.30 0.29 10.5 0 0 300.42 213.35
  L 300.42 213.02
  A 0.15 0.13 14.9 0 0 300.34 212.90
  L 292.39 209.17
  A 0.61 0.61 0.0 0 1 292.08 208.40
  Q 294.00 203.30 299.46 203.58
  Q 306.01 203.92 310.69 208.60
  A 3.38 3.31 -81.2 0 1 311.27 209.41
  Q 313.33 213.50 311.37 217.70
  A 1.46 1.44 0.4 0 1 310.64 218.41
  Q 302.28 221.95 299.22 230.14
  A 0.32 0.32 0.0 0 1 298.65 230.19
  Q 294.80 223.84 288.42 221.16
  A 0.93 0.93 0.0 0 1 287.90 219.99
  L 288.12 219.58
  A 1.11 1.11 0.0 0 1 289.48 219.06
  L 295.57 221.28
  A 0.33 0.32 19.8 0 0 295.99 221.09
  L 296.12 220.74
  A 0.09 0.08 25.2 0 0 296.07 220.63
  L 289.22 217.36
  A 0.33 0.33 0.0 0 1 289.05 216.94
  L 291.25 210.89
  A 0.45 0.44 19.7 0 1 291.81 210.63
  L 300.02 213.62
  Z"
/>
<path fill="#712378" d="
  M 240.27 215.51
  Q 241.09 211.96 243.13 210.75
  C 246.99 208.44 249.69 210.27 252.27 213.25
  A 0.37 0.37 0.0 0 0 252.92 213.07
  Q 254.20 206.18 261.57 207.82
  A 2.38 2.30 -18.4 0 1 262.55 208.29
  Q 266.60 211.63 264.50 216.42
  Q 262.48 221.04 256.58 219.56
  Q 255.49 219.29 253.33 216.64
  A 0.30 0.30 0.0 0 0 252.80 216.75
  Q 250.91 223.77 243.72 221.75
  A 2.71 2.65 72.2 0 1 242.81 221.27
  Q 241.68 220.36 240.68 218.69
  A 0.29 0.28 34.9 0 0 240.15 218.78
  C 239.76 221.17 239.07 223.37 236.45 224.19
  Q 231.35 225.78 228.19 221.35
  A 0.38 0.38 0.0 0 0 227.51 221.53
  L 227.37 222.78
  A 0.94 0.94 0.0 0 1 226.40 223.62
  Q 221.98 223.48 217.98 225.70
  A 1.30 1.29 58.3 0 1 216.27 225.29
  C 210.93 217.36 221.75 210.61 226.81 218.13
  A 0.32 0.32 0.0 0 0 227.40 218.00
  C 228.37 211.58 236.34 209.96 239.51 215.62
  A 0.41 0.41 0.0 0 0 240.27 215.51
  Z"
/>
<path fill="#5eab32" d="
  M 206.89 244.70
  L 172.96 244.68
  Q 168.05 237.30 168.51 229.27
  C 169.08 219.32 176.14 212.97 186.20 216.65
  Q 188.34 217.44 190.52 217.82
  Q 191.16 217.51 191.99 217.70
  L 192.54 217.67
  A 2.27 2.21 27.3 0 0 193.66 217.33
  C 203.05 211.55 212.88 216.54 213.95 227.42
  A 1.47 1.45 -26.3 0 1 213.55 228.58
  C 209.00 233.40 206.33 237.77 206.89 244.70
  Z"
/>
<path fill="#e97736" d="
  M 337.96 244.96
  L 301.56 244.99
  Q 302.38 239.22 300.53 234.22
  A 1.67 1.62 42.3 0 1 300.47 233.25
  Q 301.67 228.44 304.63 225.40
  C 312.76 217.03 325.64 216.37 333.80 224.92
  C 339.35 230.73 339.75 237.44 337.96 244.96
  Z
  M 325.12 221.61
  Q 323.80 221.65 322.23 222.57
  C 320.40 223.64 318.05 221.48 316.74 221.99
  A 0.78 0.77 -42.7 0 0 316.68 223.41
  L 318.31 224.20
  A 0.90 0.89 -67.3 0 1 318.76 225.31
  L 318.19 226.87
  A 0.75 0.74 -2.6 0 0 319.21 227.80
  L 321.79 226.56
  A 1.19 1.17 -47.0 0 1 322.70 226.52
  L 325.04 227.37
  A 0.57 0.57 0.0 0 0 325.70 226.49
  Q 324.97 225.51 324.06 225.09
  A 0.44 0.44 0.0 0 1 323.97 224.35
  L 325.63 222.95
  A 0.76 0.76 0.0 0 0 325.12 221.61
  Z"
/>
<path fill="#712378" d="
  M 248.74 229.21
  Q 247.71 232.89 244.88 234.55
  A 0.85 0.85 0.0 0 1 243.71 234.23
  Q 241.38 230.09 237.34 227.06
  A 1.24 1.23 31.6 0 1 236.97 225.51
  C 238.19 223.08 241.40 221.61 243.91 222.56
  Q 246.73 223.63 248.47 226.71
  A 0.19 0.19 0.0 0 0 248.83 226.60
  Q 248.55 222.55 252.14 220.63
  C 255.52 218.82 260.42 220.97 260.87 224.89
  Q 261.47 230.13 257.54 232.04
  C 254.75 233.39 250.47 232.04 249.42 229.18
  A 0.36 0.36 0.0 0 0 248.74 229.21
  Z"
/>
<path fill="#e97736" d="
  M 299.74 244.93
  L 259.37 245.05
  Q 258.33 231.13 269.36 224.35
  C 275.43 220.61 283.08 220.72 289.32 224.27
  Q 300.24 230.48 299.74 244.93
  Z
  M 277.46 226.45
  Q 279.55 227.82 278.32 229.49
  A 1.03 1.02 43.5 0 0 278.36 230.75
  L 278.40 230.80
  A 0.65 0.65 0.0 0 0 279.36 230.84
  Q 280.81 229.34 282.60 229.61
  A 1.19 0.89 53.1 0 1 282.84 229.68
  L 285.56 230.74
  A 0.51 0.51 0.0 0 0 286.14 229.93
  L 284.83 228.37
  A 0.25 0.25 0.0 0 1 284.78 228.12
  L 285.62 225.82
  A 0.65 0.64 -88.2 0 0 284.84 224.98
  L 281.53 225.96
  A 1.02 0.98 -46.1 0 1 281.01 225.98
  L 277.96 225.29
  A 0.64 0.64 0.0 0 0 277.46 226.45
  Z"
/>
<path fill="#5eab32" d="
  M 325.12 221.61
  A 0.76 0.76 0.0 0 1 325.63 222.95
  L 323.97 224.35
  A 0.44 0.44 0.0 0 0 324.06 225.09
  Q 324.97 225.51 325.70 226.49
  A 0.57 0.57 0.0 0 1 325.04 227.37
  L 322.70 226.52
  A 1.19 1.17 -47.0 0 0 321.79 226.56
  L 319.21 227.80
  A 0.75 0.74 -2.6 0 1 318.19 226.87
  L 318.76 225.31
  A 0.90 0.89 -67.3 0 0 318.31 224.20
  L 316.68 223.41
  A 0.78 0.77 -42.7 0 1 316.74 221.99
  C 318.05 221.48 320.40 223.64 322.23 222.57
  Q 323.80 221.65 325.12 221.61
  Z"
/>
<path fill="#5eab32" d="
  M 277.46 226.45
  A 0.64 0.64 0.0 0 1 277.96 225.29
  L 281.01 225.98
  A 1.02 0.98 -46.1 0 0 281.53 225.96
  L 284.84 224.98
  A 0.65 0.64 -88.2 0 1 285.62 225.82
  L 284.78 228.12
  A 0.25 0.25 0.0 0 0 284.83 228.37
  L 286.14 229.93
  A 0.51 0.51 0.0 0 1 285.56 230.74
  L 282.84 229.68
  A 1.19 0.89 53.1 0 0 282.60 229.61
  Q 280.81 229.34 279.36 230.84
  A 0.65 0.65 0.0 0 1 278.40 230.80
  L 278.36 230.75
  A 1.03 1.02 43.5 0 1 278.32 229.49
  Q 279.55 227.82 277.46 226.45
  Z"
/>
<path fill="#e97736" d="
  M 243.94 245.07
  L 208.87 244.84
  Q 209.15 230.04 222.46 226.15
  Q 228.11 224.49 234.23 227.82
  Q 244.13 233.20 243.94 245.07
  Z
  M 224.97 231.93
  Q 224.44 232.82 224.59 233.20
  A 0.63 0.63 0.0 0 0 225.58 233.45
  Q 227.85 231.54 230.47 232.75
  A 0.55 0.54 -76.2 0 0 231.24 232.28
  Q 231.26 231.76 230.22 231.05
  A 0.87 0.86 21.5 0 1 229.84 230.19
  Q 229.94 229.52 230.75 228.62
  A 0.49 0.49 0.0 0 0 230.59 227.85
  Q 229.60 227.39 228.93 227.93
  Q 226.23 230.07 224.05 228.53
  A 0.43 0.42 42.5 0 0 223.53 228.55
  L 223.28 228.76
  A 0.36 0.35 50.0 0 0 223.24 229.27
  L 224.91 231.26
  A 0.59 0.57 40.7 0 1 224.97 231.93
  Z"
/>
<path fill="#5eab32" d="
  M 224.91 231.26
  L 223.24 229.27
  A 0.36 0.35 50.0 0 1 223.28 228.76
  L 223.53 228.55
  A 0.43 0.42 42.5 0 1 224.05 228.53
  Q 226.23 230.07 228.93 227.93
  Q 229.60 227.39 230.59 227.85
  A 0.49 0.49 0.0 0 1 230.75 228.62
  Q 229.94 229.52 229.84 230.19
  A 0.87 0.86 21.5 0 0 230.22 231.05
  Q 231.26 231.76 231.24 232.28
  A 0.55 0.54 -76.2 0 1 230.47 232.75
  Q 227.85 231.54 225.58 233.45
  A 0.63 0.63 0.0 0 1 224.59 233.20
  Q 224.44 232.82 224.97 231.93
  A 0.59 0.57 40.7 0 0 224.91 231.26
  Z"
/>
<path fill="#712378" d="
  M 253.50 244.75
  L 246.91 244.90
  L 244.93 236.74
  A 1.59 1.57 59.3 0 1 245.28 235.33
  C 248.44 231.79 253.92 231.90 256.24 236.33
  Q 258.34 240.34 253.50 244.75
  Z"
/>
<path fill="#eca561" d="
  M 172.96 244.68
  L 206.89 244.70
  Q 208.02 245.24 208.87 244.84
  L 243.94 245.07
  L 246.91 244.90
  L 253.50 244.75
  L 259.37 245.05
  L 299.74 244.93
  Q 300.67 245.25 301.56 244.99
  L 337.96 244.96
  L 341.31 244.96
  L 353.66 245.09
  Q 364.47 251.65 357.86 261.62
  Q 355.42 265.30 350.20 265.42
  A 0.66 0.65 4.4 0 0 349.58 265.94
  L 348.18 272.57
  L 331.51 272.10
  A 0.61 0.61 0.0 0 1 330.96 271.28
  L 332.71 266.45
  A 0.96 0.96 0.0 0 0 331.81 265.16
  L 327.52 265.16
  A 1.54 1.53 -86.6 0 0 326.00 266.52
  L 325.41 271.82
  A 0.65 0.63 3.0 0 1 324.77 272.38
  L 294.02 272.38
  A 0.86 0.85 3.3 0 1 293.17 271.43
  L 293.68 266.89
  A 1.43 1.42 -83.7 0 0 292.43 265.32
  L 290.08 265.06
  A 2.04 2.03 -83.5 0 0 287.83 266.86
  L 287.34 271.27
  A 1.26 1.26 0.0 0 1 286.09 272.38
  L 256.02 272.38
  A 1.41 1.41 0.0 0 1 254.61 270.97
  L 254.61 266.55
  A 1.47 1.47 0.0 0 0 253.14 265.08
  L 250.11 265.08
  A 1.47 1.47 0.0 0 0 248.64 266.55
  L 248.64 271.45
  A 0.91 0.91 0.0 0 1 247.73 272.36
  L 216.95 272.36
  A 0.98 0.97 -4.9 0 1 215.99 271.56
  L 215.14 266.59
  A 1.54 1.54 0.0 0 0 213.62 265.31
  L 211.08 265.31
  A 1.13 1.13 0.0 0 0 209.95 266.44
  L 209.95 271.78
  A 1.06 1.06 0.0 0 1 208.83 272.84
  Q 192.50 271.89 178.62 272.54
  A 0.93 0.93 0.0 0 1 177.66 271.77
  L 176.76 266.54
  A 1.70 1.70 0.0 0 0 175.08 265.12
  L 172.42 265.12
  A 1.36 1.36 0.0 0 0 171.08 266.71
  L 171.98 271.98
  A 0.51 0.50 87.8 0 1 171.44 272.57
  Q 163.11 271.83 154.57 272.53
  L 153.02 265.81
  A 0.58 0.57 -6.3 0 0 152.46 265.37
  C 147.29 265.40 143.71 262.22 142.66 257.19
  Q 141.04 249.52 148.89 245.26
  L 160.85 244.75
  L 172.96 244.68
  Z"
/>
<path fill="#b97b40" d="
  M 348.18 272.57
  L 347.10 275.85
  L 330.74 275.52
  A 1.27 1.26 4.0 0 0 329.45 276.64
  L 328.77 282.64
  A 0.95 0.94 -87.9 0 0 329.74 283.69
  L 345.41 283.22
  L 344.66 286.83
  L 328.67 287.00
  A 0.73 0.73 0.0 0 0 327.97 287.56
  L 326.28 295.03
  A 0.54 0.54 0.0 0 0 326.86 295.69
  Q 334.36 294.95 342.40 295.95
  Q 342.20 297.90 341.54 299.00
  L 326.47 298.84
  A 1.37 1.36 -83.1 0 0 325.13 299.90
  L 323.67 306.34
  A 1.13 1.13 0.0 0 0 324.74 307.72
  L 339.26 308.09
  L 338.75 311.12
  L 323.99 311.30
  A 1.41 1.41 0.0 0 0 322.64 312.39
  L 321.19 318.79
  A 0.79 0.78 6.8 0 0 321.95 319.75
  L 336.67 319.77
  L 335.62 323.36
  L 321.24 322.95
  A 1.64 1.64 0.0 0 0 319.56 324.41
  L 318.89 330.38
  A 1.38 1.38 0.0 0 0 320.24 331.91
  L 333.63 332.14
  L 332.87 335.18
  L 318.32 335.43
  A 0.49 0.49 0.0 0 0 317.84 335.81
  L 315.96 344.11
  A 0.26 0.26 0.0 0 0 316.22 344.42
  L 327.86 344.17
  L 324.24 348.15
  L 315.80 347.14
  A 0.61 0.60 -82.8 0 0 315.13 347.66
  L 314.21 354.60
  L 307.36 356.57
  L 309.40 348.25
  A 0.73 0.73 0.0 0 0 308.69 347.34
  L 284.35 347.34
  A 0.62 0.61 -86.3 0 0 283.74 347.88
  L 282.46 357.03
  L 276.77 357.04
  L 277.86 348.19
  A 0.87 0.86 3.5 0 0 277.00 347.22
  L 255.47 347.22
  A 0.80 0.79 -89.3 0 0 254.68 348.00
  L 254.55 357.00
  L 248.80 356.98
  L 248.44 347.88
  A 0.62 0.62 0.0 0 0 247.82 347.28
  L 226.04 347.28
  A 0.60 0.59 -0.9 0 0 225.44 347.89
  L 225.73 357.02
  L 219.78 357.04
  L 219.17 347.81
  A 0.66 0.66 0.0 0 0 218.51 347.19
  L 195.12 347.19
  A 1.19 1.18 85.6 0 0 193.95 348.56
  L 195.18 356.55
  L 188.20 354.51
  L 187.79 348.54
  A 1.35 1.34 -2.8 0 0 186.39 347.28
  L 178.03 347.64
  L 174.74 344.05
  L 185.66 344.47
  A 0.91 0.89 86.3 0 0 186.58 343.41
  L 185.44 336.73
  A 1.69 1.69 0.0 0 0 183.75 335.32
  L 170.12 335.49
  Q 169.18 334.03 169.04 331.80
  L 183.56 331.71
  A 0.38 0.38 0.0 0 0 183.93 331.27
  L 182.57 323.34
  A 0.40 0.39 -5.9 0 0 182.17 323.02
  L 166.90 323.37
  L 166.08 319.75
  L 180.96 319.96
  A 0.87 0.87 0.0 0 0 181.83 318.94
  L 180.73 312.51
  A 1.48 1.47 85.3 0 0 179.29 311.28
  L 164.16 311.18
  Q 163.37 309.83 163.22 307.72
  L 178.40 307.41
  A 0.60 0.60 0.0 0 0 178.98 306.71
  L 177.73 299.43
  A 0.58 0.57 84.4 0 0 177.14 298.94
  L 161.15 299.56
  L 160.02 295.26
  L 175.82 295.96
  A 1.18 1.18 0.0 0 0 177.01 294.44
  L 175.26 288.53
  A 2.21 2.21 0.0 0 0 173.00 286.95
  Q 170.58 287.11 162.26 286.65
  Q 160.62 286.56 158.30 287.29
  Q 157.28 285.47 157.29 283.30
  Q 165.33 284.08 173.54 283.32
  A 0.67 0.67 0.0 0 0 174.14 282.54
  L 173.12 276.54
  A 1.35 1.34 82.9 0 0 171.70 275.43
  L 155.53 276.57
  L 154.57 272.53
  Q 163.11 271.83 171.44 272.57
  A 0.51 0.50 87.8 0 0 171.98 271.98
  L 171.08 266.71
  A 1.36 1.36 0.0 0 1 172.42 265.12
  L 175.08 265.12
  A 1.70 1.70 0.0 0 1 176.76 266.54
  L 177.66 271.77
  A 0.93 0.93 0.0 0 0 178.62 272.54
  Q 192.50 271.89 208.83 272.84
  A 1.06 1.06 0.0 0 0 209.95 271.78
  L 209.95 266.44
  A 1.13 1.13 0.0 0 1 211.08 265.31
  L 213.62 265.31
  A 1.54 1.54 0.0 0 1 215.14 266.59
  L 215.99 271.56
  A 0.98 0.97 -4.9 0 0 216.95 272.36
  L 247.73 272.36
  A 0.91 0.91 0.0 0 0 248.64 271.45
  L 248.64 266.55
  A 1.47 1.47 0.0 0 1 250.11 265.08
  L 253.14 265.08
  A 1.47 1.47 0.0 0 1 254.61 266.55
  L 254.61 270.97
  A 1.41 1.41 0.0 0 0 256.02 272.38
  L 286.09 272.38
  A 1.26 1.26 0.0 0 0 287.34 271.27
  L 287.83 266.86
  A 2.04 2.03 -83.5 0 1 290.08 265.06
  L 292.43 265.32
  A 1.43 1.42 -83.7 0 1 293.68 266.89
  L 293.17 271.43
  A 0.86 0.85 3.3 0 0 294.02 272.38
  L 324.77 272.38
  A 0.65 0.63 3.0 0 0 325.41 271.82
  L 326.00 266.52
  A 1.54 1.53 -86.6 0 1 327.52 265.16
  L 331.81 265.16
  A 0.96 0.96 0.0 0 1 332.71 266.45
  L 330.96 271.28
  A 0.61 0.61 0.0 0 0 331.51 272.10
  L 348.18 272.57
  Z
  M 210.28 276.32
  A 0.71 0.71 0.0 0 0 209.58 275.73
  L 179.46 275.73
  A 0.71 0.71 0.0 0 0 178.78 276.64
  L 180.69 283.09
  A 0.71 0.71 0.0 0 0 181.37 283.60
  L 210.69 283.60
  A 0.71 0.71 0.0 0 0 211.39 282.77
  L 210.28 276.32
  Z
  M 291.77 283.12
  A 0.36 0.36 0.0 0 0 292.13 283.48
  L 322.29 283.48
  A 0.36 0.36 0.0 0 0 322.64 283.20
  L 324.22 276.24
  A 0.36 0.36 0.0 0 0 323.87 275.80
  L 292.13 275.80
  A 0.36 0.36 0.0 0 0 291.77 276.16
  L 291.77 283.12
  Z
  M 248.8549 276.7318
  A 0.99 0.99 0.0 0 0 247.8632 275.7436
  L 217.5633 275.7964
  A 0.99 0.99 0.0 0 0 216.5750 276.7882
  L 216.5851 282.5682
  A 0.99 0.99 0.0 0 0 217.5768 283.5564
  L 247.8767 283.5036
  A 0.99 0.99 0.0 0 0 248.8650 282.5118
  L 248.8549 276.7318
  Z
  M 286.76 276.68
  A 0.75 0.75 0.0 0 0 286.01 275.85
  L 254.67 275.85
  A 0.75 0.75 0.0 0 0 253.93 276.73
  L 254.98 282.90
  A 0.75 0.75 0.0 0 0 255.72 283.52
  L 285.32 283.52
  A 0.75 0.75 0.0 0 0 286.06 282.85
  L 286.76 276.68
  Z
  M 212.34 287.49
  A 0.66 0.66 0.0 0 0 211.68 286.83
  L 181.76 286.83
  A 0.66 0.66 0.0 0 0 181.11 287.60
  L 182.41 295.19
  A 0.66 0.66 0.0 0 0 183.06 295.74
  L 211.68 295.74
  A 0.66 0.66 0.0 0 0 212.34 295.08
  L 212.34 287.49
  Z
  M 248.96 294.66
  L 248.96 288.23
  A 1.46 1.46 0.0 0 0 247.43 286.77
  Q 231.88 287.50 218.25 286.47
  A 0.87 0.86 -2.8 0 0 217.33 287.48
  L 218.52 294.43
  A 1.43 1.43 0.0 0 0 219.93 295.62
  L 248.00 295.62
  A 0.96 0.96 0.0 0 0 248.96 294.66
  Z
  M 254.34 295.21
  A 0.35 0.35 0.0 0 0 254.69 295.56
  L 284.17 295.56
  A 0.35 0.35 0.0 0 0 284.51 295.25
  L 285.41 287.31
  A 0.35 0.35 0.0 0 0 285.06 286.92
  L 254.69 286.92
  A 0.35 0.35 0.0 0 0 254.34 287.27
  L 254.34 295.21
  Z
  M 321.56 287.52
  A 0.53 0.53 0.0 0 0 321.04 286.93
  L 291.98 286.93
  A 0.53 0.53 0.0 0 0 291.47 287.34
  L 289.74 294.93
  A 0.53 0.53 0.0 0 0 290.25 295.58
  L 320.19 295.58
  A 0.53 0.53 0.0 0 0 320.71 295.11
  L 321.56 287.52
  Z
  M 213.07 299.27
  A 0.32 0.32 0.0 0 0 212.75 299.00
  L 184.42 299.00
  A 0.32 0.32 0.0 0 0 184.10 299.37
  L 185.49 307.54
  A 0.32 0.32 0.0 0 0 185.81 307.81
  L 214.15 307.81
  A 0.32 0.32 0.0 0 0 214.47 307.44
  L 213.07 299.27
  Z
  M 288.91 306.99
  A 0.70 0.70 0.0 0 0 289.60 307.77
  L 316.38 307.77
  A 0.70 0.70 0.0 0 0 317.04 307.31
  L 319.70 300.00
  A 0.70 0.70 0.0 0 0 319.04 299.06
  L 290.43 299.06
  A 0.70 0.70 0.0 0 0 289.73 299.68
  L 288.91 306.99
  Z
  M 248.5916 300.0711
  A 1.06 1.06 0.0 0 0 247.5353 299.0074
  L 220.3954 298.9127
  A 1.06 1.06 0.0 0 0 219.3317 299.9690
  L 219.3084 306.6489
  A 1.06 1.06 0.0 0 0 220.3647 307.7126
  L 247.5046 307.8073
  A 1.06 1.06 0.0 0 0 248.5683 306.7510
  L 248.5916 300.0711
  Z
  M 283.69 299.90
  A 0.78 0.78 0.0 0 0 282.92 299.03
  L 255.87 299.03
  A 0.78 0.78 0.0 0 0 255.09 299.72
  L 254.29 306.89
  A 0.78 0.78 0.0 0 0 255.06 307.76
  L 282.11 307.76
  A 0.78 0.78 0.0 0 0 282.89 307.07
  L 283.69 299.90
  Z
  M 254.40 319.23
  A 0.34 0.34 0.0 0 0 254.74 319.57
  L 281.36 319.57
  A 0.34 0.34 0.0 0 0 281.69 319.27
  L 282.55 311.64
  A 0.34 0.34 0.0 0 0 282.21 311.26
  L 254.74 311.26
  A 0.34 0.34 0.0 0 0 254.40 311.60
  L 254.40 319.23
  Z
  M 187.45 319.20
  A 0.54 0.54 0.0 0 0 187.99 319.65
  L 215.48 319.65
  A 0.54 0.54 0.0 0 0 216.01 319.02
  L 214.75 311.61
  A 0.54 0.54 0.0 0 0 214.21 311.16
  L 186.71 311.16
  A 0.54 0.54 0.0 0 0 186.18 311.79
  L 187.45 319.20
  Z
  M 316.44 312.25
  A 0.94 0.94 0.0 0 0 315.51 311.20
  L 288.98 311.20
  A 0.94 0.94 0.0 0 0 288.05 312.04
  L 287.32 318.56
  A 0.94 0.94 0.0 0 0 288.25 319.60
  L 314.77 319.60
  A 0.94 0.94 0.0 0 0 315.70 318.77
  L 316.44 312.25
  Z
  M 249.30 312.02
  A 0.76 0.76 0.0 0 0 248.55 311.17
  L 221.75 311.17
  A 0.76 0.76 0.0 0 0 220.99 311.93
  L 220.99 318.93
  A 0.76 0.76 0.0 0 0 221.75 319.69
  L 247.76 319.69
  A 0.76 0.76 0.0 0 0 248.52 319.02
  L 249.30 312.02
  Z
  M 216.62 323.87
  A 0.79 0.79 0.0 0 0 215.83 323.08
  L 189.84 323.08
  A 0.79 0.79 0.0 0 0 189.06 324.00
  L 190.31 331.33
  A 0.79 0.79 0.0 0 0 191.09 331.99
  L 215.83 331.99
  A 0.79 0.79 0.0 0 0 216.62 331.20
  L 216.62 323.87
  Z
  M 248.62 323.46
  A 0.35 0.35 0.0 0 0 248.27 323.11
  L 222.23 323.11
  A 0.35 0.35 0.0 0 0 221.89 323.52
  L 223.26 331.57
  A 0.35 0.35 0.0 0 0 223.61 331.86
  L 248.27 331.86
  A 0.35 0.35 0.0 0 0 248.62 331.51
  L 248.62 323.46
  Z
  M 254.26 330.99
  A 0.78 0.78 0.0 0 0 255.03 331.86
  L 279.12 331.86
  A 0.78 0.78 0.0 0 0 279.90 331.17
  L 280.70 324.00
  A 0.78 0.78 0.0 0 0 279.93 323.13
  L 255.84 323.13
  A 0.78 0.78 0.0 0 0 255.06 323.82
  L 254.26 330.99
  Z
  M 286.25 330.78
  A 1.07 1.07 0.0 0 0 287.32 331.85
  L 311.52 331.85
  A 1.07 1.07 0.0 0 0 312.56 331.02
  L 314.05 324.44
  A 1.07 1.07 0.0 0 0 313.01 323.13
  L 287.32 323.13
  A 1.07 1.07 0.0 0 0 286.25 324.20
  L 286.25 330.78
  Z
  M 254.45 343.86
  A 0.34 0.34 0.0 0 0 254.79 344.20
  L 278.21 344.20
  A 0.34 0.34 0.0 0 0 278.54 343.90
  L 279.49 335.52
  A 0.34 0.34 0.0 0 0 279.15 335.14
  L 254.79 335.14
  A 0.34 0.34 0.0 0 0 254.45 335.48
  L 254.45 343.86
  Z
  M 192.55 343.70
  A 0.74 0.74 0.0 0 0 193.28 344.32
  L 217.97 344.32
  A 0.74 0.74 0.0 0 0 218.70 343.46
  L 217.38 335.70
  A 0.74 0.74 0.0 0 0 216.65 335.08
  L 191.96 335.08
  A 0.74 0.74 0.0 0 0 191.23 335.94
  L 192.55 343.70
  Z
  M 248.87 335.45
  A 0.31 0.31 0.0 0 0 248.56 335.14
  L 223.38 335.14
  A 0.31 0.31 0.0 0 0 223.07 335.50
  L 224.52 343.93
  A 0.31 0.31 0.0 0 0 224.82 344.19
  L 248.56 344.19
  A 0.31 0.31 0.0 0 0 248.87 343.88
  L 248.87 335.45
  Z
  M 311.76 336.21
  A 0.85 0.85 0.0 0 0 310.93 335.17
  L 286.17 335.17
  A 0.85 0.85 0.0 0 0 285.34 335.83
  L 283.67 343.18
  A 0.85 0.85 0.0 0 0 284.50 344.22
  L 309.26 344.22
  A 0.85 0.85 0.0 0 0 310.09 343.56
  L 311.76 336.21
  Z"
/>
<path fill="#eca561" d="
  M 157.29 283.30
  L 155.53 276.57
  L 171.70 275.43
  A 1.35 1.34 82.9 0 1 173.12 276.54
  L 174.14 282.54
  A 0.67 0.67 0.0 0 1 173.54 283.32
  Q 165.33 284.08 157.29 283.30
  Z"
/>
<path fill="#eca561" d="
  M 210.28 276.32
  L 211.39 282.77
  A 0.71 0.71 0.0 0 1 210.69 283.60
  L 181.37 283.60
  A 0.71 0.71 0.0 0 1 180.69 283.09
  L 178.78 276.64
  A 0.71 0.71 0.0 0 1 179.46 275.73
  L 209.58 275.73
  A 0.71 0.71 0.0 0 1 210.28 276.32
  Z"
/>
<path fill="#eca561" d="
  M 291.77 283.12
  L 291.77 276.16
  A 0.36 0.36 0.0 0 1 292.13 275.80
  L 323.87 275.80
  A 0.36 0.36 0.0 0 1 324.22 276.24
  L 322.64 283.20
  A 0.36 0.36 0.0 0 1 322.29 283.48
  L 292.13 283.48
  A 0.36 0.36 0.0 0 1 291.77 283.12
  Z"
/>
<path fill="#eca561" d="
  M 347.10 275.85
  L 345.41 283.22
  L 329.74 283.69
  A 0.95 0.94 -87.9 0 1 328.77 282.64
  L 329.45 276.64
  A 1.27 1.26 4.0 0 1 330.74 275.52
  L 347.10 275.85
  Z"
/>
<rect fill="#eca561" x="-16.14" y="-3.88" transform="translate(232.72,279.65) rotate(-0.1)" width="32.28" height="7.76" rx="0.99"/>
<path fill="#eca561" d="
  M 286.76 276.68
  L 286.06 282.85
  A 0.75 0.75 0.0 0 1 285.32 283.52
  L 255.72 283.52
  A 0.75 0.75 0.0 0 1 254.98 282.90
  L 253.93 276.73
  A 0.75 0.75 0.0 0 1 254.67 275.85
  L 286.01 275.85
  A 0.75 0.75 0.0 0 1 286.76 276.68
  Z"
/>
<path fill="#eca561" d="
  M 212.34 287.49
  L 212.34 295.08
  A 0.66 0.66 0.0 0 1 211.68 295.74
  L 183.06 295.74
  A 0.66 0.66 0.0 0 1 182.41 295.19
  L 181.11 287.60
  A 0.66 0.66 0.0 0 1 181.76 286.83
  L 211.68 286.83
  A 0.66 0.66 0.0 0 1 212.34 287.49
  Z"
/>
<path fill="#eca561" d="
  M 248.00 295.62
  L 219.93 295.62
  A 1.43 1.43 0.0 0 1 218.52 294.43
  L 217.33 287.48
  A 0.87 0.86 -2.8 0 1 218.25 286.47
  Q 231.88 287.50 247.43 286.77
  A 1.46 1.46 0.0 0 1 248.96 288.23
  L 248.96 294.66
  A 0.96 0.96 0.0 0 1 248.00 295.62
  Z"
/>
<path fill="#eca561" d="
  M 254.34 295.21
  L 254.34 287.27
  A 0.35 0.35 0.0 0 1 254.69 286.92
  L 285.06 286.92
  A 0.35 0.35 0.0 0 1 285.41 287.31
  L 284.51 295.25
  A 0.35 0.35 0.0 0 1 284.17 295.56
  L 254.69 295.56
  A 0.35 0.35 0.0 0 1 254.34 295.21
  Z"
/>
<path fill="#eca561" d="
  M 160.02 295.26
  L 158.30 287.29
  Q 160.62 286.56 162.26 286.65
  Q 170.58 287.11 173.00 286.95
  A 2.21 2.21 0.0 0 1 175.26 288.53
  L 177.01 294.44
  A 1.18 1.18 0.0 0 1 175.82 295.96
  L 160.02 295.26
  Z"
/>
<path fill="#eca561" d="
  M 321.56 287.52
  L 320.71 295.11
  A 0.53 0.53 0.0 0 1 320.19 295.58
  L 290.25 295.58
  A 0.53 0.53 0.0 0 1 289.74 294.93
  L 291.47 287.34
  A 0.53 0.53 0.0 0 1 291.98 286.93
  L 321.04 286.93
  A 0.53 0.53 0.0 0 1 321.56 287.52
  Z"
/>
<path fill="#eca561" d="
  M 344.66 286.83
  L 342.40 295.95
  Q 334.36 294.95 326.86 295.69
  A 0.54 0.54 0.0 0 1 326.28 295.03
  L 327.97 287.56
  A 0.73 0.73 0.0 0 1 328.67 287.00
  L 344.66 286.83
  Z"
/>
<path fill="#eca561" d="
  M 163.22 307.72
  L 161.15 299.56
  L 177.14 298.94
  A 0.58 0.57 84.4 0 1 177.73 299.43
  L 178.98 306.71
  A 0.60 0.60 0.0 0 1 178.40 307.41
  L 163.22 307.72
  Z"
/>
<path fill="#eca561" d="
  M 213.07 299.27
  L 214.47 307.44
  A 0.32 0.32 0.0 0 1 214.15 307.81
  L 185.81 307.81
  A 0.32 0.32 0.0 0 1 185.49 307.54
  L 184.10 299.37
  A 0.32 0.32 0.0 0 1 184.42 299.00
  L 212.75 299.00
  A 0.32 0.32 0.0 0 1 213.07 299.27
  Z"
/>
<path fill="#eca561" d="
  M 288.91 306.99
  L 289.73 299.68
  A 0.70 0.70 0.0 0 1 290.43 299.06
  L 319.04 299.06
  A 0.70 0.70 0.0 0 1 319.70 300.00
  L 317.04 307.31
  A 0.70 0.70 0.0 0 1 316.38 307.77
  L 289.60 307.77
  A 0.70 0.70 0.0 0 1 288.91 306.99
  Z"
/>
<path fill="#eca561" d="
  M 341.54 299.00
  L 339.26 308.09
  L 324.74 307.72
  A 1.13 1.13 0.0 0 1 323.67 306.34
  L 325.13 299.90
  A 1.37 1.36 -83.1 0 1 326.47 298.84
  L 341.54 299.00
  Z"
/>
<rect fill="#eca561" x="-14.63" y="-4.40" transform="translate(233.95,303.36) rotate(0.2)" width="29.26" height="8.80" rx="1.06"/>
<path fill="#eca561" d="
  M 283.69 299.90
  L 282.89 307.07
  A 0.78 0.78 0.0 0 1 282.11 307.76
  L 255.06 307.76
  A 0.78 0.78 0.0 0 1 254.29 306.89
  L 255.09 299.72
  A 0.78 0.78 0.0 0 1 255.87 299.03
  L 282.92 299.03
  A 0.78 0.78 0.0 0 1 283.69 299.90
  Z"
/>
<path fill="#eca561" d="
  M 254.40 319.23
  L 254.40 311.60
  A 0.34 0.34 0.0 0 1 254.74 311.26
  L 282.21 311.26
  A 0.34 0.34 0.0 0 1 282.55 311.64
  L 281.69 319.27
  A 0.34 0.34 0.0 0 1 281.36 319.57
  L 254.74 319.57
  A 0.34 0.34 0.0 0 1 254.40 319.23
  Z"
/>
<path fill="#eca561" d="
  M 166.08 319.75
  L 164.16 311.18
  L 179.29 311.28
  A 1.48 1.47 85.3 0 1 180.73 312.51
  L 181.83 318.94
  A 0.87 0.87 0.0 0 1 180.96 319.96
  L 166.08 319.75
  Z"
/>
<path fill="#eca561" d="
  M 187.45 319.20
  L 186.18 311.79
  A 0.54 0.54 0.0 0 1 186.71 311.16
  L 214.21 311.16
  A 0.54 0.54 0.0 0 1 214.75 311.61
  L 216.01 319.02
  A 0.54 0.54 0.0 0 1 215.48 319.65
  L 187.99 319.65
  A 0.54 0.54 0.0 0 1 187.45 319.20
  Z"
/>
<path fill="#eca561" d="
  M 316.44 312.25
  L 315.70 318.77
  A 0.94 0.94 0.0 0 1 314.77 319.60
  L 288.25 319.60
  A 0.94 0.94 0.0 0 1 287.32 318.56
  L 288.05 312.04
  A 0.94 0.94 0.0 0 1 288.98 311.20
  L 315.51 311.20
  A 0.94 0.94 0.0 0 1 316.44 312.25
  Z"
/>
<path fill="#eca561" d="
  M 338.75 311.12
  L 336.67 319.77
  L 321.95 319.75
  A 0.79 0.78 6.8 0 1 321.19 318.79
  L 322.64 312.39
  A 1.41 1.41 0.0 0 1 323.99 311.30
  L 338.75 311.12
  Z"
/>
<path fill="#eca561" d="
  M 249.30 312.02
  L 248.52 319.02
  A 0.76 0.76 0.0 0 1 247.76 319.69
  L 221.75 319.69
  A 0.76 0.76 0.0 0 1 220.99 318.93
  L 220.99 311.93
  A 0.76 0.76 0.0 0 1 221.75 311.17
  L 248.55 311.17
  A 0.76 0.76 0.0 0 1 249.30 312.02
  Z"
/>
<path fill="#eca561" d="
  M 169.04 331.80
  L 166.90 323.37
  L 182.17 323.02
  A 0.40 0.39 -5.9 0 1 182.57 323.34
  L 183.93 331.27
  A 0.38 0.38 0.0 0 1 183.56 331.71
  L 169.04 331.80
  Z"
/>
<path fill="#eca561" d="
  M 216.62 323.87
  L 216.62 331.20
  A 0.79 0.79 0.0 0 1 215.83 331.99
  L 191.09 331.99
  A 0.79 0.79 0.0 0 1 190.31 331.33
  L 189.06 324.00
  A 0.79 0.79 0.0 0 1 189.84 323.08
  L 215.83 323.08
  A 0.79 0.79 0.0 0 1 216.62 323.87
  Z"
/>
<path fill="#eca561" d="
  M 248.62 323.46
  L 248.62 331.51
  A 0.35 0.35 0.0 0 1 248.27 331.86
  L 223.61 331.86
  A 0.35 0.35 0.0 0 1 223.26 331.57
  L 221.89 323.52
  A 0.35 0.35 0.0 0 1 222.23 323.11
  L 248.27 323.11
  A 0.35 0.35 0.0 0 1 248.62 323.46
  Z"
/>
<path fill="#eca561" d="
  M 254.26 330.99
  L 255.06 323.82
  A 0.78 0.78 0.0 0 1 255.84 323.13
  L 279.93 323.13
  A 0.78 0.78 0.0 0 1 280.70 324.00
  L 279.90 331.17
  A 0.78 0.78 0.0 0 1 279.12 331.86
  L 255.03 331.86
  A 0.78 0.78 0.0 0 1 254.26 330.99
  Z"
/>
<path fill="#eca561" d="
  M 286.25 330.78
  L 286.25 324.20
  A 1.07 1.07 0.0 0 1 287.32 323.13
  L 313.01 323.13
  A 1.07 1.07 0.0 0 1 314.05 324.44
  L 312.56 331.02
  A 1.07 1.07 0.0 0 1 311.52 331.85
  L 287.32 331.85
  A 1.07 1.07 0.0 0 1 286.25 330.78
  Z"
/>
<path fill="#eca561" d="
  M 335.62 323.36
  L 333.63 332.14
  L 320.24 331.91
  A 1.38 1.38 0.0 0 1 318.89 330.38
  L 319.56 324.41
  A 1.64 1.64 0.0 0 1 321.24 322.95
  L 335.62 323.36
  Z"
/>
<path fill="#eca561" d="
  M 254.45 343.86
  L 254.45 335.48
  A 0.34 0.34 0.0 0 1 254.79 335.14
  L 279.15 335.14
  A 0.34 0.34 0.0 0 1 279.49 335.52
  L 278.54 343.90
  A 0.34 0.34 0.0 0 1 278.21 344.20
  L 254.79 344.20
  A 0.34 0.34 0.0 0 1 254.45 343.86
  Z"
/>
<path fill="#eca561" d="
  M 192.55 343.70
  L 191.23 335.94
  A 0.74 0.74 0.0 0 1 191.96 335.08
  L 216.65 335.08
  A 0.74 0.74 0.0 0 1 217.38 335.70
  L 218.70 343.46
  A 0.74 0.74 0.0 0 1 217.97 344.32
  L 193.28 344.32
  A 0.74 0.74 0.0 0 1 192.55 343.70
  Z"
/>
<path fill="#eca561" d="
  M 248.87 335.45
  L 248.87 343.88
  A 0.31 0.31 0.0 0 1 248.56 344.19
  L 224.82 344.19
  A 0.31 0.31 0.0 0 1 224.52 343.93
  L 223.07 335.50
  A 0.31 0.31 0.0 0 1 223.38 335.14
  L 248.56 335.14
  A 0.31 0.31 0.0 0 1 248.87 335.45
  Z"
/>
<path fill="#eca561" d="
  M 311.76 336.21
  L 310.09 343.56
  A 0.85 0.85 0.0 0 1 309.26 344.22
  L 284.50 344.22
  A 0.85 0.85 0.0 0 1 283.67 343.18
  L 285.34 335.83
  A 0.85 0.85 0.0 0 1 286.17 335.17
  L 310.93 335.17
  A 0.85 0.85 0.0 0 1 311.76 336.21
  Z"
/>
<path fill="#eca561" d="
  M 332.87 335.18
  Q 330.98 340.24 327.86 344.17
  L 316.22 344.42
  A 0.26 0.26 0.0 0 1 315.96 344.11
  L 317.84 335.81
  A 0.49 0.49 0.0 0 1 318.32 335.43
  L 332.87 335.18
  Z"
/>
<path fill="#eca561" d="
  M 174.74 344.05
  Q 171.74 340.40 170.12 335.49
  L 183.75 335.32
  A 1.69 1.69 0.0 0 1 185.44 336.73
  L 186.58 343.41
  A 0.91 0.89 86.3 0 1 185.66 344.47
  L 174.74 344.05
  Z"
/>
<path fill="#eca561" d="
  M 219.78 357.04
  L 195.18 356.55
  L 193.95 348.56
  A 1.19 1.18 85.6 0 1 195.12 347.19
  L 218.51 347.19
  A 0.66 0.66 0.0 0 1 219.17 347.81
  L 219.78 357.04
  Z"
/>
<path fill="#eca561" d="
  M 188.20 354.51
  Q 182.62 352.45 178.03 347.64
  L 186.39 347.28
  A 1.35 1.34 -2.8 0 1 187.79 348.54
  L 188.20 354.51
  Z"
/>
<path fill="#eca561" d="
  M 248.80 356.98
  L 225.73 357.02
  L 225.44 347.89
  A 0.60 0.59 -0.9 0 1 226.04 347.28
  L 247.82 347.28
  A 0.62 0.62 0.0 0 1 248.44 347.88
  L 248.80 356.98
  Z"
/>
<path fill="#eca561" d="
  M 276.77 357.04
  L 254.55 357.00
  L 254.68 348.00
  A 0.80 0.79 -89.3 0 1 255.47 347.22
  L 277.00 347.22
  A 0.87 0.86 3.5 0 1 277.86 348.19
  L 276.77 357.04
  Z"
/>
<path fill="#eca561" d="
  M 307.36 356.57
  Q 303.95 357.07 300.50 357.10
  Q 291.54 357.17 282.46 357.03
  L 283.74 347.88
  A 0.62 0.61 -86.3 0 1 284.35 347.34
  L 308.69 347.34
  A 0.73 0.73 0.0 0 1 309.40 348.25
  L 307.36 356.57
  Z"
/>
<path fill="#eca561" d="
  M 324.24 348.15
  Q 319.67 352.53 314.21 354.60
  L 315.13 347.66
  A 0.61 0.60 -82.8 0 1 315.80 347.14
  L 324.24 348.15
  Z"
/>
</svg>
