<?xml version="1.0" encoding="UTF-8" standalone="no"?>
<!DOCTYPE svg PUBLIC "-//W3C//DTD SVG 1.1//EN" "http://www.w3.org/Graphics/SVG/1.1/DTD/svg11.dtd">
<svg xmlns="http://www.w3.org/2000/svg" version="1.1" viewBox="0.00 0.00 691.00 361.00">
<path stroke="#cbd89c" stroke-width="2.00" fill="none" stroke-linecap="butt" vector-effect="non-scaling-stroke" d="
  M 371.62 83.17
  Q 371.62 83.33 370.92 83.83
  Q 370.14 84.38 367.67 85.35
  A 1.46 1.43 47.8 0 1 366.49 85.28
  Q 364.73 84.37 363.18 84.31
  A 0.91 0.91 0.0 0 0 362.69 86.00
  L 364.15 86.84
  A 0.43 0.43 0.0 0 1 364.16 87.57
  Q 363.94 87.72 362.66 88.42
  A 0.95 0.86 -52.4 0 0 362.80 90.12
  Q 363.43 90.23 365.02 89.34
  A 0.58 0.58 0.0 0 1 365.87 89.97
  Q 365.67 90.94 365.67 91.38
  A 1.07 1.07 0.0 0 0 367.79 91.61
  L 368.60 88.05
  A 0.96 0.94 -9.5 0 1 369.04 87.45
  L 372.23 85.61
  A 0.55 0.55 0.0 0 1 373.03 85.94
  Q 374.27 90.50 370.08 92.06
  A 1.17 1.12 -44.1 0 0 370.00 94.21
  Q 370.98 94.57 372.27 93.33
  A 0.54 0.54 0.0 0 1 373.18 93.82
  Q 373.04 94.59 373.16 95.24
  A 0.96 0.93 -29.0 0 0 374.80 95.68
  Q 375.23 95.22 375.08 93.70
  A 0.49 0.49 0.0 0 1 375.81 93.23
  L 377.63 94.28
  A 0.67 0.67 0.0 0 0 378.58 93.95
  L 378.76 93.54
  A 1.15 1.15 0.0 0 0 378.27 92.11
  L 375.90 90.74
  A 1.25 1.24 -75.0 0 1 375.28 89.66
  L 375.28 85.96
  A 0.49 0.49 0.0 0 1 375.92 85.49
  Q 380.25 86.90 380.15 90.73
  A 1.45 1.44 -79.0 0 0 381.09 92.13
  L 381.21 92.17
  A 0.83 0.83 0.0 0 0 382.32 91.45
  L 382.43 89.76
  A 0.49 0.49 0.0 0 1 383.16 89.37
  L 384.22 89.99
  A 0.81 0.81 0.0 0 0 385.32 89.69
  L 385.48 89.41
  A 0.64 0.64 0.0 0 0 385.25 88.53
  L 384.23 87.95
  A 0.76 0.76 0.0 0 1 384.23 86.64
  L 385.49 85.91
  A 0.86 0.86 0.0 0 0 384.97 84.31
  Q 383.76 84.43 382.01 85.46
  A 1.30 1.29 41.5 0 1 380.81 85.53
  Q 379.61 84.98 377.07 83.55
  Q 377.04 83.53 376.98 83.40
  Q 376.92 83.24 376.92 83.19
  Q 376.92 83.15 376.98 82.99
  Q 377.04 82.86 377.07 82.84
  Q 379.62 81.43 380.83 80.89
  A 1.30 1.29 -41.0 0 1 382.03 80.97
  Q 383.77 82.01 384.98 82.14
  A 0.86 0.86 0.0 0 0 385.51 80.55
  L 384.26 79.81
  A 0.76 0.76 0.0 0 1 384.27 78.50
  L 385.29 77.93
  A 0.64 0.64 0.0 0 0 385.53 77.05
  L 385.37 76.77
  A 0.81 0.81 0.0 0 0 384.27 76.46
  L 383.21 77.07
  A 0.49 0.49 0.0 0 1 382.48 76.67
  L 382.39 74.98
  A 0.83 0.83 0.0 0 0 381.28 74.25
  L 381.16 74.29
  A 1.45 1.44 79.5 0 0 380.21 75.68
  Q 380.28 79.51 375.94 80.89
  A 0.49 0.49 0.0 0 1 375.30 80.41
  L 375.33 76.71
  A 1.25 1.24 75.5 0 1 375.96 75.64
  L 378.34 74.29
  A 1.15 1.15 0.0 0 0 378.84 72.86
  L 378.67 72.45
  A 0.67 0.67 0.0 0 0 377.72 72.11
  L 375.89 73.15
  A 0.49 0.49 0.0 0 1 375.17 72.67
  Q 375.33 71.15 374.90 70.69
  A 0.96 0.93 29.5 0 0 373.26 71.12
  Q 373.13 71.77 373.27 72.54
  A 0.54 0.54 0.0 0 1 372.35 73.02
  Q 371.07 71.77 370.09 72.12
  A 1.17 1.12 44.5 0 0 370.15 74.27
  Q 374.33 75.87 373.05 80.42
  A 0.55 0.55 0.0 0 1 372.25 80.74
  L 369.07 78.87
  A 0.96 0.94 10.0 0 1 368.64 78.27
  L 367.86 74.70
  A 1.07 1.07 0.0 0 0 365.74 74.92
  Q 365.73 75.36 365.93 76.33
  A 0.58 0.58 0.0 0 1 365.07 76.95
  Q 363.49 76.05 362.86 76.15
  A 0.95 0.86 52.9 0 0 362.70 77.85
  Q 363.98 78.56 364.20 78.71
  A 0.43 0.43 0.0 0 1 364.18 79.44
  L 362.71 80.27
  A 0.91 0.91 0.0 0 0 363.19 81.97
  Q 364.74 81.92 366.51 81.02
  A 1.46 1.43 -47.3 0 1 367.69 80.96
  Q 370.15 81.95 370.93 82.51
  Q 371.62 83.02 371.62 83.17"
/>
<path fill="#98b13c" d="
  M 339.51 55.08
  Q 383.34 55.08 385.45 55.05
  Q 394.64 54.91 396.00 55.43
  Q 400.80 57.29 402.47 62.86
  A 2.84 2.51 -56.7 0 1 402.58 63.63
  L 402.58 173.59
  A 0.55 0.54 -0.2 0 1 402.04 174.13
  Q 379.76 174.17 339.50 174.17
  Q 299.24 174.16 276.96 174.12
  A 0.55 0.54 0.2 0 1 276.42 173.58
  L 276.44 63.62
  A 2.84 2.51 56.7 0 1 276.55 62.85
  Q 278.22 57.28 283.02 55.42
  Q 284.38 54.90 293.58 55.04
  Q 295.69 55.07 339.51 55.08
  Z
  M 371.62 83.17
  Q 371.62 83.33 370.92 83.83
  Q 370.14 84.38 367.67 85.35
  A 1.46 1.43 47.8 0 1 366.49 85.28
  Q 364.73 84.37 363.18 84.31
  A 0.91 0.91 0.0 0 0 362.69 86.00
  L 364.15 86.84
  A 0.43 0.43 0.0 0 1 364.16 87.57
  Q 363.94 87.72 362.66 88.42
  A 0.95 0.86 -52.4 0 0 362.80 90.12
  Q 363.43 90.23 365.02 89.34
  A 0.58 0.58 0.0 0 1 365.87 89.97
  Q 365.67 90.94 365.67 91.38
  A 1.07 1.07 0.0 0 0 367.79 91.61
  L 368.60 88.05
  A 0.96 0.94 -9.5 0 1 369.04 87.45
  L 372.23 85.61
  A 0.55 0.55 0.0 0 1 373.03 85.94
  Q 374.27 90.50 370.08 92.06
  A 1.17 1.12 -44.1 0 0 370.00 94.21
  Q 370.98 94.57 372.27 93.33
  A 0.54 0.54 0.0 0 1 373.18 93.82
  Q 373.04 94.59 373.16 95.24
  A 0.96 0.93 -29.0 0 0 374.80 95.68
  Q 375.23 95.22 375.08 93.70
  A 0.49 0.49 0.0 0 1 375.81 93.23
  L 377.63 94.28
  A 0.67 0.67 0.0 0 0 378.58 93.95
  L 378.76 93.54
  A 1.15 1.15 0.0 0 0 378.27 92.11
  L 375.90 90.74
  A 1.25 1.24 -75.0 0 1 375.28 89.66
  L 375.28 85.96
  A 0.49 0.49 0.0 0 1 375.92 85.49
  Q 380.25 86.90 380.15 90.73
  A 1.45 1.44 -79.0 0 0 381.09 92.13
  L 381.21 92.17
  A 0.83 0.83 0.0 0 0 382.32 91.45
  L 382.43 89.76
  A 0.49 0.49 0.0 0 1 383.16 89.37
  L 384.22 89.99
  A 0.81 0.81 0.0 0 0 385.32 89.69
  L 385.48 89.41
  A 0.64 0.64 0.0 0 0 385.25 88.53
  L 384.23 87.95
  A 0.76 0.76 0.0 0 1 384.23 86.64
  L 385.49 85.91
  A 0.86 0.86 0.0 0 0 384.97 84.31
  Q 383.76 84.43 382.01 85.46
  A 1.30 1.29 41.5 0 1 380.81 85.53
  Q 379.61 84.98 377.07 83.55
  Q 377.04 83.53 376.98 83.40
  Q 376.92 83.24 376.92 83.19
  Q 376.92 83.15 376.98 82.99
  Q 377.04 82.86 377.07 82.84
  Q 379.62 81.43 380.83 80.89
  A 1.30 1.29 -41.0 0 1 382.03 80.97
  Q 383.77 82.01 384.98 82.14
  A 0.86 0.86 0.0 0 0 385.51 80.55
  L 384.26 79.81
  A 0.76 0.76 0.0 0 1 384.27 78.50
  L 385.29 77.93
  A 0.64 0.64 0.0 0 0 385.53 77.05
  L 385.37 76.77
  A 0.81 0.81 0.0 0 0 384.27 76.46
  L 383.21 77.07
  A 0.49 0.49 0.0 0 1 382.48 76.67
  L 382.39 74.98
  A 0.83 0.83 0.0 0 0 381.28 74.25
  L 381.16 74.29
  A 1.45 1.44 79.5 0 0 380.21 75.68
  Q 380.28 79.51 375.94 80.89
  A 0.49 0.49 0.0 0 1 375.30 80.41
  L 375.33 76.71
  A 1.25 1.24 75.5 0 1 375.96 75.64
  L 378.34 74.29
  A 1.15 1.15 0.0 0 0 378.84 72.86
  L 378.67 72.45
  A 0.67 0.67 0.0 0 0 377.72 72.11
  L 375.89 73.15
  A 0.49 0.49 0.0 0 1 375.17 72.67
  Q 375.33 71.15 374.90 70.69
  A 0.96 0.93 29.5 0 0 373.26 71.12
  Q 373.13 71.77 373.27 72.54
  A 0.54 0.54 0.0 0 1 372.35 73.02
  Q 371.07 71.77 370.09 72.12
  A 1.17 1.12 44.5 0 0 370.15 74.27
  Q 374.33 75.87 373.05 80.42
  A 0.55 0.55 0.0 0 1 372.25 80.74
  L 369.07 78.87
  A 0.96 0.94 10.0 0 1 368.64 78.27
  L 367.86 74.70
  A 1.07 1.07 0.0 0 0 365.74 74.92
  Q 365.73 75.36 365.93 76.33
  A 0.58 0.58 0.0 0 1 365.07 76.95
  Q 363.49 76.05 362.86 76.15
  A 0.95 0.86 52.9 0 0 362.70 77.85
  Q 363.98 78.56 364.20 78.71
  A 0.43 0.43 0.0 0 1 364.18 79.44
  L 362.71 80.27
  A 0.91 0.91 0.0 0 0 363.19 81.97
  Q 364.74 81.92 366.51 81.02
  A 1.46 1.43 -47.3 0 1 367.69 80.96
  Q 370.15 81.95 370.93 82.51
  Q 371.62 83.02 371.62 83.17
  Z
  M 294.0579 114.0542
  A 3.29 3.29 0.0 0 0 290.7621 110.7700
  L 290.6621 110.7701
  A 3.29 3.29 0.0 0 0 287.3779 114.0659
  L 287.4621 162.3258
  A 3.29 3.29 0.0 0 0 290.7579 165.6100
  L 290.8579 165.6099
  A 3.29 3.29 0.0 0 0 294.1421 162.3141
  L 294.0579 114.0542
  Z"
/>
<path fill="#fefffb" d="
  M 376.92 83.19
  Q 376.92 83.24 376.98 83.40
  Q 377.04 83.53 377.07 83.55
  Q 379.61 84.98 380.81 85.53
  A 1.30 1.29 41.5 0 0 382.01 85.46
  Q 383.76 84.43 384.97 84.31
  A 0.86 0.86 0.0 0 1 385.49 85.91
  L 384.23 86.64
  A 0.76 0.76 0.0 0 0 384.23 87.95
  L 385.25 88.53
  A 0.64 0.64 0.0 0 1 385.48 89.41
  L 385.32 89.69
  A 0.81 0.81 0.0 0 1 384.22 89.99
  L 383.16 89.37
  A 0.49 0.49 0.0 0 0 382.43 89.76
  L 382.32 91.45
  A 0.83 0.83 0.0 0 1 381.21 92.17
  L 381.09 92.13
  A 1.45 1.44 -79.0 0 1 380.15 90.73
  Q 380.25 86.90 375.92 85.49
  A 0.49 0.49 0.0 0 0 375.28 85.96
  L 375.28 89.66
  A 1.25 1.24 -75.0 0 0 375.90 90.74
  L 378.27 92.11
  A 1.15 1.15 0.0 0 1 378.76 93.54
  L 378.58 93.95
  A 0.67 0.67 0.0 0 1 377.63 94.28
  L 375.81 93.23
  A 0.49 0.49 0.0 0 0 375.08 93.70
  Q 375.23 95.22 374.80 95.68
  A 0.96 0.93 -29.0 0 1 373.16 95.24
  Q 373.04 94.59 373.18 93.82
  A 0.54 0.54 0.0 0 0 372.27 93.33
  Q 370.98 94.57 370.00 94.21
  A 1.17 1.12 -44.1 0 1 370.08 92.06
  Q 374.27 90.50 373.03 85.94
  A 0.55 0.55 0.0 0 0 372.23 85.61
  L 369.04 87.45
  A 0.96 0.94 -9.5 0 0 368.60 88.05
  L 367.79 91.61
  A 1.07 1.07 0.0 0 1 365.67 91.38
  Q 365.67 90.94 365.87 89.97
  A 0.58 0.58 0.0 0 0 365.02 89.34
  Q 363.43 90.23 362.80 90.12
  A 0.95 0.86 -52.4 0 1 362.66 88.42
  Q 363.94 87.72 364.16 87.57
  A 0.43 0.43 0.0 0 0 364.15 86.84
  L 362.69 86.00
  A 0.91 0.91 0.0 0 1 363.18 84.31
  Q 364.73 84.37 366.49 85.28
  A 1.46 1.43 47.8 0 0 367.67 85.35
  Q 370.14 84.38 370.92 83.83
  Q 371.62 83.33 371.62 83.17
  Q 371.62 83.02 370.93 82.51
  Q 370.15 81.95 367.69 80.96
  A 1.46 1.43 -47.3 0 0 366.51 81.02
  Q 364.74 81.92 363.19 81.97
  A 0.91 0.91 0.0 0 1 362.71 80.27
  L 364.18 79.44
  A 0.43 0.43 0.0 0 0 364.20 78.71
  Q 363.98 78.56 362.70 77.85
  A 0.95 0.86 52.9 0 1 362.86 76.15
  Q 363.49 76.05 365.07 76.95
  A 0.58 0.58 0.0 0 0 365.93 76.33
  Q 365.73 75.36 365.74 74.92
  A 1.07 1.07 0.0 0 1 367.86 74.70
  L 368.64 78.27
  A 0.96 0.94 10.0 0 0 369.07 78.87
  L 372.25 80.74
  A 0.55 0.55 0.0 0 0 373.05 80.42
  Q 374.33 75.87 370.15 74.27
  A 1.17 1.12 44.5 0 1 370.09 72.12
  Q 371.07 71.77 372.35 73.02
  A 0.54 0.54 0.0 0 0 373.27 72.54
  Q 373.13 71.77 373.26 71.12
  A 0.96 0.93 29.5 0 1 374.90 70.69
  Q 375.33 71.15 375.17 72.67
  A 0.49 0.49 0.0 0 0 375.89 73.15
  L 377.72 72.11
  A 0.67 0.67 0.0 0 1 378.67 72.45
  L 378.84 72.86
  A 1.15 1.15 0.0 0 1 378.34 74.29
  L 375.96 75.64
  A 1.25 1.24 75.5 0 0 375.33 76.71
  L 375.30 80.41
  A 0.49 0.49 0.0 0 0 375.94 80.89
  Q 380.28 79.51 380.21 75.68
  A 1.45 1.44 79.5 0 1 381.16 74.29
  L 381.28 74.25
  A 0.83 0.83 0.0 0 1 382.39 74.98
  L 382.48 76.67
  A 0.49 0.49 0.0 0 0 383.21 77.07
  L 384.27 76.46
  A 0.81 0.81 0.0 0 1 385.37 76.77
  L 385.53 77.05
  A 0.64 0.64 0.0 0 1 385.29 77.93
  L 384.27 78.50
  A 0.76 0.76 0.0 0 0 384.26 79.81
  L 385.51 80.55
  A 0.86 0.86 0.0 0 1 384.98 82.14
  Q 383.77 82.01 382.03 80.97
  A 1.30 1.29 -41.0 0 0 380.83 80.89
  Q 379.62 81.43 377.07 82.84
  Q 377.04 82.86 376.98 82.99
  Q 376.92 83.15 376.92 83.19
  Z"
/>
<path fill="#98b13c" d="
  M 276.83 178.18
  L 401.34 178.18
  A 1.24 1.24 0.0 0 1 402.58 179.41
  Q 402.61 199.31 402.57 296.01
  Q 402.57 305.21 394.36 307.03
  C 393.35 307.25 392.32 308.04 391.62 308.66
  A 3.32 2.95 43.4 0 1 387.51 308.53
  C 386.27 307.51 385.40 307.13 383.70 307.13
  Q 346.11 307.32 296.50 307.37
  C 293.56 307.38 291.22 310.06 288.31 308.37
  C 286.59 307.36 285.48 307.20 283.28 306.61
  C 279.43 305.57 276.57 301.05 276.58 297.73
  Q 276.59 235.55 276.45 178.56
  A 0.38 0.38 0.0 0 1 276.83 178.18
  Z
  M 294.01 189.41
  A 3.22 3.22 0.0 0 0 290.79 186.19
  L 290.65 186.19
  A 3.22 3.22 0.0 0 0 287.43 189.41
  L 287.43 237.31
  A 3.22 3.22 0.0 0 0 290.65 240.53
  L 290.79 240.53
  A 3.22 3.22 0.0 0 0 294.01 237.31
  L 294.01 189.41
  Z"
/>
</svg>
