<?xml version="1.0" encoding="UTF-8" standalone="no"?>
<!DOCTYPE svg PUBLIC "-//W3C//DTD SVG 1.1//EN" "http://www.w3.org/Graphics/SVG/1.1/DTD/svg11.dtd">
<svg xmlns="http://www.w3.org/2000/svg" version="1.1" viewBox="0.00 0.00 500.00 500.00">
<g stroke-width="2.00" fill="none" stroke-linecap="butt">
<path stroke="#ce6a31" vector-effect="non-scaling-stroke" d="
  M 327.18 364.41
  L 310.15 364.27"
/>
<path stroke="#ce6a31" vector-effect="non-scaling-stroke" d="
  M 189.93 364.29
  L 172.74 364.40"
/>
<path stroke="#ce6a31" vector-effect="non-scaling-stroke" d="
  M 157.91 220.21
  L 157.92 218.46"
/>
<path stroke="#ce6a31" vector-effect="non-scaling-stroke" d="
  M 157.94 216.21
  L 157.93 212.71"
/>
<path stroke="#ce6a31" vector-effect="non-scaling-stroke" d="
  M 157.91 195.26
  L 157.93 185.55"
/>
<path stroke="#ce6a31" vector-effect="non-scaling-stroke" d="
  M 157.94 183.21
  L 157.91 181.96"
/>
<path stroke="#ce6a31" vector-effect="non-scaling-stroke" d="
  M 157.91 180.20
  L 157.91 162.35"
/>
<path stroke="#ce6a31" vector-effect="non-scaling-stroke" d="
  M 249.99 190.52
  Q 312.07 190.58 329.12 190.47
  A 0.84 0.83 89.8 0 0 329.95 189.63
  Q 329.88 156.61 329.94 153.56
  C 330.08 146.18 329.21 140.77 321.00 140.76
  Q 257.37 140.71 250.03 140.71
  Q 242.70 140.70 179.07 140.63
  C 170.86 140.63 169.98 146.03 170.11 153.41
  Q 170.16 156.46 170.03 189.48
  A 0.84 0.83 -89.7 0 0 170.86 190.32
  Q 187.91 190.47 249.99 190.52"
/>
<path stroke="#ce6a31" vector-effect="non-scaling-stroke" d="
  M 170.01 197.87
  Q 170.16 217.53 169.99 238.33
  C 169.95 244.01 174.33 245.58 179.25 245.57
  Q 312.47 245.52 318.75 245.52
  C 323.56 245.53 328.73 245.14 329.84 240.02
  Q 330.14 238.61 330.04 232.96
  Q 329.86 222.81 329.99 200.81
  Q 329.99 200.09 330.01 199.71
  Q 330.16 197.44 328.07 197.44
  Q 323.32 197.43 196.75 197.48
  Q 175.99 197.49 170.48 197.40
  A 0.47 0.46 -0.6 0 0 170.01 197.87"
/>
</g>
<path fill="#e77738" d="
  M 327.18 364.41
  L 310.15 364.27
  L 189.93 364.29
  L 172.74 364.40
  L 168.11 364.05
  A 2.66 2.30 -30.7 0 1 167.72 363.98
  Q 157.96 361.20 157.94 351.50
  Q 157.84 285.85 157.91 220.21
  L 157.92 218.46
  L 157.94 216.21
  L 157.93 212.71
  L 157.91 195.26
  L 157.93 185.55
  L 157.94 183.21
  L 157.91 181.96
  L 157.91 180.20
  L 157.91 162.35
  Q 157.91 153.84 157.93 145.35
  Q 157.96 137.42 159.40 134.95
  C 162.54 129.57 166.69 128.55 173.28 128.57
  Q 223.82 128.69 325.82 128.55
  Q 333.12 128.54 335.43 129.90
  Q 339.11 132.05 340.93 136.01
  Q 341.92 138.16 341.93 144.12
  Q 342.02 241.43 342.03 350.25
  Q 342.03 364.23 327.18 364.41
  Z
  M 249.99 190.52
  Q 312.07 190.58 329.12 190.47
  A 0.84 0.83 89.8 0 0 329.95 189.63
  Q 329.88 156.61 329.94 153.56
  C 330.08 146.18 329.21 140.77 321.00 140.76
  Q 257.37 140.71 250.03 140.71
  Q 242.70 140.70 179.07 140.63
  C 170.86 140.63 169.98 146.03 170.11 153.41
  Q 170.16 156.46 170.03 189.48
  A 0.84 0.83 -89.7 0 0 170.86 190.32
  Q 187.91 190.47 249.99 190.52
  Z
  M 170.01 197.87
  Q 170.16 217.53 169.99 238.33
  C 169.95 244.01 174.33 245.58 179.25 245.57
  Q 312.47 245.52 318.75 245.52
  C 323.56 245.53 328.73 245.14 329.84 240.02
  Q 330.14 238.61 330.04 232.96
  Q 329.86 222.81 329.99 200.81
  Q 329.99 200.09 330.01 199.71
  Q 330.16 197.44 328.07 197.44
  Q 323.32 197.43 196.75 197.48
  Q 175.99 197.49 170.48 197.40
  A 0.47 0.46 -0.6 0 0 170.01 197.87
  Z
  M 235.7396 292.3985
  A 2.98 2.98 0.0 0 0 232.7492 289.4289
  L 232.0892 289.4312
  A 2.98 2.98 0.0 0 0 229.1197 292.4216
  L 229.2004 315.5415
  A 2.98 2.98 0.0 0 0 232.1908 318.5111
  L 232.8508 318.5088
  A 2.98 2.98 0.0 0 0 235.8203 315.5184
  L 235.7396 292.3985
  Z
  M 270.7896 292.3442
  A 2.95 2.95 0.0 0 0 267.8345 289.3994
  L 267.0945 289.4007
  A 2.95 2.95 0.0 0 0 264.1497 292.3558
  L 264.1904 315.6758
  A 2.95 2.95 0.0 0 0 267.1455 318.6206
  L 267.8855 318.6193
  A 2.95 2.95 0.0 0 0 270.8303 315.6642
  L 270.7896 292.3442
  Z"
/>
<path fill="#b45c2a" d="
  M 250.03 140.71
  Q 257.37 140.71 321.00 140.76
  C 329.21 140.77 330.08 146.18 329.94 153.56
  Q 329.88 156.61 329.95 189.63
  A 0.84 0.83 89.8 0 1 329.12 190.47
  Q 312.07 190.58 249.99 190.52
  Q 187.91 190.47 170.86 190.32
  A 0.84 0.83 -89.7 0 1 170.03 189.48
  Q 170.16 156.46 170.11 153.41
  C 169.98 146.03 170.86 140.63 179.07 140.63
  Q 242.70 140.70 250.03 140.71
  Z"
/>
<path fill="#b45c2a" d="
  M 157.91 162.35
  L 157.91 180.20
  L 157.91 162.35
  Z"
/>
<path fill="#b45c2a" d="
  M 157.94 183.21
  Q 157.81 182.60 157.91 181.96
  L 157.94 183.21
  Z"
/>
<path fill="#b45c2a" d="
  M 157.93 185.55
  L 157.91 195.26
  L 157.93 185.55
  Z"
/>
<path fill="#b45c2a" d="
  M 170.01 197.87
  A 0.47 0.46 -0.6 0 1 170.48 197.40
  Q 175.99 197.49 196.75 197.48
  Q 323.32 197.43 328.07 197.44
  Q 330.16 197.44 330.01 199.71
  Q 329.99 200.09 329.99 200.81
  Q 329.86 222.81 330.04 232.96
  Q 330.14 238.61 329.84 240.02
  C 328.73 245.14 323.56 245.53 318.75 245.52
  Q 312.47 245.52 179.25 245.57
  C 174.33 245.58 169.95 244.01 169.99 238.33
  Q 170.16 217.53 170.01 197.87
  Z"
/>
<path fill="#b45c2a" d="
  M 157.94 216.21
  L 157.93 212.71
  L 157.94 216.21
  Z"
/>
<path fill="#b45c2a" d="
  M 157.91 220.21
  L 157.92 218.46
  L 157.91 220.21
  Z"
/>
<path fill="#b45c2a" d="
  M 189.93 364.29
  C 190.03 368.24 191.01 372.72 185.92 372.60
  Q 184.79 372.58 176.32 372.53
  C 171.53 372.50 172.78 367.54 172.74 364.40
  L 189.93 364.29
  Z"
/>
<path fill="#b45c2a" d="
  M 327.18 364.41
  L 327.20 370.04
  A 2.55 2.55 0.0 0 1 324.68 372.59
  Q 319.27 372.63 313.50 372.56
  C 309.03 372.50 310.11 367.23 310.15 364.27
  L 327.18 364.41
  Z"
/>
</svg>
