<?xml version="1.0" encoding="UTF-8" standalone="no"?>
<!DOCTYPE svg PUBLIC "-//W3C//DTD SVG 1.1//EN" "http://www.w3.org/Graphics/SVG/1.1/DTD/svg11.dtd">
<svg xmlns="http://www.w3.org/2000/svg" version="1.1" viewBox="0.00 0.00 460.00 288.00">
<path fill="#e68336" d="
  M 249.23 228.61
  C 248.05 227.45 246.95 225.70 245.49 224.61
  Q 237.79 218.84 229.79 216.20
  C 217.90 212.27 207.93 208.13 201.83 196.75
  A 0.87 0.86 62.4 0 1 202.20 195.56
  C 220.56 186.28 224.20 166.22 216.48 148.22
  Q 212.04 137.85 205.94 126.16
  C 203.82 122.09 202.39 118.07 200.43 114.34
  A 0.57 0.56 -34.3 0 0 199.55 114.18
  Q 189.51 123.15 183.07 135.24
  C 175.49 149.49 170.45 165.70 177.68 181.30
  Q 181.96 190.56 190.96 194.79
  Q 193.70 196.08 193.71 196.08
  A 2.43 2.42 -87.1 0 1 194.80 197.29
  Q 195.33 198.58 197.90 202.62
  Q 205.13 214.00 218.60 218.90
  Q 227.76 222.23 231.11 223.62
  C 241.51 227.94 248.83 236.89 248.64 248.49
  Q 248.58 252.39 248.18 255.58
  A 1.88 1.87 89.6 0 1 246.59 257.20
  C 231.17 259.38 214.61 257.44 200.24 251.21
  C 171.68 238.86 151.40 212.28 148.06 180.68
  C 144.86 150.43 156.86 123.13 180.25 104.21
  Q 202.95 85.84 233.28 85.42
  Q 249.37 85.20 262.50 89.97
  C 284.72 98.04 303.46 114.50 313.11 136.06
  C 322.92 157.97 323.24 183.38 313.80 205.48
  Q 299.25 239.53 263.15 253.32
  A 0.95 0.95 0.0 0 1 261.86 252.49
  C 261.05 237.84 259.53 223.30 260.36 209.34
  Q 260.80 202.03 265.45 197.73
  C 267.82 195.54 272.59 193.28 275.01 190.87
  Q 283.36 182.53 285.40 172.44
  C 289.40 152.75 284.43 125.90 266.15 113.95
  C 257.36 108.21 247.56 110.66 239.93 117.41
  C 229.68 126.48 224.19 142.47 223.31 155.69
  C 222.50 168.11 226.30 181.99 235.21 190.97
  C 237.63 193.41 241.27 195.62 244.35 197.71
  A 6.71 6.43 -1.2 0 1 245.83 199.07
  Q 249.71 203.88 250.26 209.82
  Q 250.83 215.91 249.97 228.33
  A 0.44 0.44 0.0 0 1 249.23 228.61
  Z"
/>
<path fill="#e68336" d="
  M 255.30 192.00
  C 240.49 192.03 231.81 177.64 230.34 163.75
  Q 228.04 141.86 240.90 124.91
  C 244.03 120.79 249.72 116.89 255.11 116.88
  C 260.49 116.86 266.21 120.74 269.35 124.84
  Q 282.30 141.72 280.11 163.62
  C 278.71 177.52 270.11 191.96 255.30 192.00
  Z"
/>
<path fill="#98b93a" d="
  M 190.99 187.94
  C 169.24 171.88 184.15 139.47 198.12 124.14
  A 0.62 0.62 0.0 0 1 199.14 124.31
  Q 202.73 132.63 207.80 142.43
  C 213.71 153.86 217.49 168.63 210.61 180.13
  Q 206.59 186.84 199.60 190.02
  A 0.63 0.63 0.0 0 1 198.79 189.75
  C 197.77 187.87 197.49 185.95 197.05 183.98
  Q 193.53 168.19 197.60 153.46
  A 0.35 0.35 0.0 0 0 196.97 153.18
  C 190.77 163.21 189.82 176.08 191.50 187.64
  A 0.32 0.32 0.0 0 1 190.99 187.94
  Z"
/>
</svg>
