<?xml version="1.0" encoding="UTF-8" standalone="no"?>
<!DOCTYPE svg PUBLIC "-//W3C//DTD SVG 1.1//EN" "http://www.w3.org/Graphics/SVG/1.1/DTD/svg11.dtd">
<svg xmlns="http://www.w3.org/2000/svg" version="1.1" viewBox="0.00 0.00 675.00 370.00">
<path fill="#e68336" d="
  M 362.43 200.66
  L 359.03 197.48
  A 3.79 3.12 77.1 0 0 358.59 197.14
  Q 353.54 193.70 342.75 189.95
  Q 333.04 186.58 327.25 177.81
  A 1.26 1.26 0.0 0 1 327.58 176.09
  C 328.79 175.24 330.73 174.54 332.51 173.25
  Q 336.93 170.03 339.39 163.42
  C 342.79 154.32 340.84 148.72 338.00 140.46
  C 336.70 136.68 334.21 133.15 333.09 130.11
  Q 332.15 127.57 329.56 123.06
  Q 327.77 119.96 326.61 115.78
  A 0.74 0.73 -29.1 0 0 325.40 115.44
  Q 317.69 122.53 312.85 132.11
  Q 308.72 140.28 307.53 145.38
  C 306.34 150.43 305.96 160.49 309.08 165.64
  C 311.69 169.94 313.45 172.96 317.52 174.93
  Q 320.01 176.13 320.63 176.40
  A 2.15 2.10 -1.5 0 1 321.64 177.34
  Q 328.88 190.99 342.61 195.03
  Q 350.04 197.22 354.77 200.53
  Q 358.12 202.87 361.12 208.89
  C 362.85 212.37 362.47 218.02 362.07 221.62
  A 0.84 0.82 -2.9 0 1 361.40 222.35
  C 350.81 224.43 342.12 222.69 331.37 220.13
  C 327.57 219.22 324.13 217.14 319.71 215.09
  A 12.26 12.08 75.7 0 1 317.49 213.75
  C 314.60 211.56 311.56 209.73 308.70 207.17
  Q 300.46 199.82 294.82 190.03
  C 292.31 185.67 291.31 182.29 289.21 176.82
  Q 288.00 173.67 287.33 168.66
  C 286.23 160.40 286.34 150.45 288.31 143.04
  C 291.05 132.71 296.36 122.52 304.08 114.47
  Q 311.33 106.93 320.53 101.73
  Q 324.32 99.59 327.54 98.59
  C 330.66 97.62 334.08 96.07 337.27 95.37
  Q 350.39 92.50 364.14 94.91
  C 368.22 95.62 372.90 97.79 377.28 99.22
  A 14.99 14.64 -19.1 0 1 380.72 100.84
  C 383.84 102.84 386.93 104.39 389.77 106.45
  C 397.42 111.99 404.89 119.98 408.94 128.72
  Q 409.83 130.65 411.87 134.59
  A 13.11 12.73 -66.3 0 1 412.91 137.38
  C 415.56 148.10 417.61 157.17 415.63 167.52
  Q 413.91 176.55 412.82 179.62
  Q 411.68 182.85 408.54 189.20
  Q 406.04 194.24 403.00 198.07
  Q 391.16 212.96 373.18 219.77
  A 0.36 0.36 0.0 0 1 372.69 219.46
  Q 371.36 204.02 370.95 196.76
  Q 370.56 189.93 371.75 184.05
  C 372.63 179.69 374.68 178.02 378.60 175.42
  Q 381.48 173.52 382.65 172.27
  Q 386.77 167.87 387.92 164.93
  Q 392.17 154.02 390.33 142.47
  C 389.72 138.66 388.49 132.06 386.26 128.05
  Q 382.89 122.00 379.91 118.96
  C 374.81 113.76 370.67 112.24 363.71 113.46
  C 357.80 114.49 352.77 120.54 349.37 125.92
  C 347.86 128.30 346.73 132.42 345.81 134.82
  C 342.54 143.41 342.02 152.32 345.14 160.70
  Q 345.96 162.91 348.35 168.19
  C 349.40 170.50 352.74 173.49 355.44 175.40
  Q 359.99 178.62 360.99 179.83
  C 364.47 184.05 363.57 194.58 363.02 200.44
  A 0.35 0.35 0.0 0 1 362.43 200.66
  Z"
/>
<path fill="#e68336" d="
  M 367.17 117.70
  C 377.35 117.70 382.48 129.91 384.82 137.95
  Q 388.94 152.08 381.65 165.05
  C 378.94 169.86 373.25 173.84 367.18 173.84
  C 361.10 173.84 355.41 169.86 352.71 165.06
  Q 345.41 152.09 349.52 137.95
  C 351.86 129.92 356.99 117.70 367.17 117.70
  Z"
/>
<path fill="#96b73b" d="
  M 318.87 170.71
  C 313.05 166.32 311.09 160.74 311.24 153.53
  Q 311.49 141.71 318.05 131.49
  Q 321.95 125.43 323.30 124.04
  Q 324.36 122.96 324.73 122.64
  A 0.45 0.44 54.7 0 1 325.40 122.76
  Q 325.45 122.84 327.48 127.89
  Q 328.10 129.44 329.94 132.79
  Q 334.41 140.95 336.33 148.73
  Q 339.09 159.88 330.61 169.11
  A 1.61 1.33 -0.8 0 1 330.28 169.39
  L 325.61 172.45
  A 0.44 0.44 0.0 0 1 324.96 172.26
  C 321.61 164.85 321.54 154.33 323.33 146.93
  A 0.40 0.40 0.0 0 0 322.94 146.44
  L 322.66 146.44
  A 0.24 0.23 6.1 0 0 322.43 146.62
  Q 321.73 149.19 320.93 151.19
  C 318.58 157.10 318.53 163.55 319.48 170.35
  A 0.38 0.38 0.0 0 1 318.87 170.71
  Z"
/>
<path fill="#e68336" d="
  M 532.90 298.13
  L 521.84 298.13
  A 1.20 1.19 71.9 0 1 520.87 297.63
  L 510.69 283.64
  A 0.53 0.53 0.0 0 0 509.83 283.65
  Q 508.48 285.53 506.36 286.63
  A 3.03 3.03 0.0 0 0 504.73 289.32
  L 504.73 297.48
  A 0.63 0.63 0.0 0 1 504.10 298.11
  L 494.89 298.11
  A 0.56 0.55 0.0 0 1 494.33 297.56
  L 494.33 247.99
  A 0.58 0.57 0.0 0 1 494.91 247.42
  L 503.81 247.42
  A 0.84 0.84 0.0 0 1 504.65 248.26
  L 504.65 275.54
  A 0.36 0.35 68.0 0 0 505.25 275.80
  Q 513.80 267.37 518.58 262.60
  Q 519.68 261.50 522.06 261.49
  Q 526.61 261.49 531.24 261.57
  A 0.40 0.40 0.0 0 1 531.56 262.19
  Q 530.00 264.52 528.44 265.65
  Q 526.19 267.27 525.10 268.94
  Q 524.35 270.11 521.18 272.41
  Q 521.07 272.49 518.48 276.00
  A 0.83 0.83 0.0 0 0 518.44 276.95
  L 520.49 280.26
  A 1.25 0.41 72.0 0 0 520.57 280.37
  L 527.01 289.37
  A 1.21 0.96 12.0 0 0 527.15 289.54
  Q 529.71 292.04 531.12 295.06
  C 531.69 296.27 532.65 296.69 533.22 297.51
  A 0.40 0.39 72.5 0 1 532.90 298.13
  Z"
/>
<path fill="#96b73b" d="
  M 244.33 274.33
  C 244.35 280.21 247.35 285.95 252.94 288.25
  C 259.68 291.01 265.83 288.95 271.02 284.44
  A 0.86 0.86 0.0 0 1 272.20 284.48
  L 277.73 290.00
  A 0.89 0.88 -48.8 0 1 277.80 291.15
  Q 275.50 294.18 273.17 295.41
  Q 258.54 303.12 244.17 295.51
  A 8.29 8.19 -9.3 0 1 242.45 294.29
  L 238.17 290.32
  A 3.87 3.86 5.6 0 1 237.50 289.51
  C 234.61 284.80 232.40 279.70 232.38 274.38
  C 232.36 269.06 234.52 263.94 237.37 259.21
  A 3.87 3.86 -6.1 0 1 238.03 258.39
  L 242.27 254.38
  A 8.29 8.19 8.8 0 1 243.98 253.15
  Q 258.29 245.41 272.98 252.99
  Q 275.32 254.20 277.65 257.21
  A 0.89 0.88 48.3 0 1 277.59 258.36
  L 272.11 263.93
  A 0.86 0.86 0.0 0 1 270.93 263.98
  C 265.70 259.52 259.53 257.51 252.82 260.33
  C 247.24 262.68 244.30 268.44 244.33 274.33
  Z"
/>
<path fill="#96b73b" d="
  M 333.4200 274.2761
  A 26.44 25.19 0.1 0 1 306.9360 299.4200
  A 26.44 25.19 0.1 0 1 280.5400 274.1839
  A 26.44 25.19 0.1 0 1 307.0240 249.0400
  A 26.44 25.19 0.1 0 1 333.4200 274.2761
  Z
  M 306.4228 258.9268
  A 15.41 14.88 -91.7 0 0 292.0065 274.7714
  A 15.41 14.88 -91.7 0 0 307.3372 289.7332
  A 15.41 14.88 -91.7 0 0 321.7535 273.8886
  A 15.41 14.88 -91.7 0 0 306.4228 258.9268
  Z"
/>
<path fill="#e68336" d="
  M 367.73 274.07
  Q 367.70 278.57 368.91 280.82
  C 372.27 287.13 379.62 291.29 386.72 288.97
  Q 391.22 287.50 393.89 284.98
  A 1.54 1.54 0.0 0 1 396.03 285.01
  L 400.99 289.97
  A 1.25 1.25 0.0 0 1 400.95 291.77
  L 397.21 295.18
  A 2.50 2.37 -77.5 0 1 396.59 295.60
  Q 381.64 302.64 368.16 295.31
  Q 363.24 292.63 359.62 286.20
  Q 356.66 280.95 356.70 273.99
  Q 356.75 267.03 359.79 261.82
  Q 363.50 255.44 368.46 252.83
  Q 382.04 245.69 396.89 252.94
  A 2.50 2.37 78.3 0 1 397.50 253.37
  L 401.19 256.83
  A 1.25 1.25 0.0 0 1 401.21 258.63
  L 396.18 263.52
  A 1.54 1.54 0.0 0 1 394.04 263.52
  Q 391.41 260.97 386.93 259.43
  C 379.86 257.01 372.45 261.07 369.00 267.33
  Q 367.77 269.57 367.73 274.07
  Z"
/>
<path fill="#96b73b" d="
  M 201.05 260.15
  L 201.05 268.97
  A 0.62 0.62 0.0 0 0 201.67 269.59
  L 222.97 269.59
  A 0.62 0.62 0.0 0 1 223.59 270.21
  L 223.59 277.72
  A 0.62 0.62 0.0 0 1 222.97 278.34
  L 201.78 278.34
  A 0.62 0.62 0.0 0 0 201.16 278.96
  L 201.16 288.67
  A 0.62 0.62 0.0 0 0 201.78 289.29
  L 226.71 289.29
  A 0.62 0.62 0.0 0 1 227.33 289.91
  L 227.33 297.57
  A 0.62 0.62 0.0 0 1 226.71 298.19
  L 190.44 298.19
  A 0.62 0.62 0.0 0 1 189.82 297.57
  L 189.82 250.96
  A 0.62 0.62 0.0 0 1 190.44 250.34
  L 225.77 250.34
  A 0.62 0.62 0.0 0 1 226.39 250.96
  L 226.39 258.91
  A 0.62 0.62 0.0 0 1 225.77 259.53
  L 201.67 259.53
  A 0.62 0.62 0.0 0 0 201.05 260.15
  Z"
/>
<path fill="#e68336" d="
  M 444.0940 279.2370
  A 20.18 19.15 -1.4 0 1 424.3879 298.8743
  A 20.18 19.15 -1.4 0 1 403.7460 280.2230
  A 20.18 19.15 -1.4 0 1 423.4521 260.5857
  A 20.18 19.15 -1.4 0 1 444.0940 279.2370
  Z
  M 423.9682 269.4823
  A 10.42 9.44 -88.8 0 0 414.3121 279.7023
  A 10.42 9.44 -88.8 0 0 423.5318 290.3177
  A 10.42 9.44 -88.8 0 0 433.1879 280.0977
  A 10.42 9.44 -88.8 0 0 423.9682 269.4823
  Z"
/>
<path fill="#e68336" d="
  M 487.0357 281.0300
  A 17.01 17.01 0.0 0 1 470.3251 298.3342
  L 465.4059 298.4201
  A 17.01 17.01 0.0 0 1 448.1016 281.7095
  L 448.0443 278.4300
  A 17.01 17.01 0.0 0 1 464.7549 261.1258
  L 469.6741 261.0399
  A 17.01 17.01 0.0 0 1 486.9784 277.7505
  L 487.0357 281.0300
  Z
  M 467.5232 269.4103
  A 10.49 9.31 -89.6 0 0 458.1402 279.8350
  A 10.49 9.31 -89.6 0 0 467.3768 290.3897
  A 10.49 9.31 -89.6 0 0 476.7598 279.9650
  A 10.49 9.31 -89.6 0 0 467.5232 269.4103
  Z"
/>
</svg>
